<svg xmlns="http://www.w3.org/2000/svg" width="170" height="80" viewBox="0 0 170 80" fill="none"><rect width="170" height="80" rx="5" fill="white"></rect><g clip-path="url(#clip0_1_43)"><path d="M30.6356 24.3154V47.6639H39.3431V51.6853H26V24.3154H30.6356ZM55.6932 35.9238V33.4624H60.0991V51.6954H55.714V49.2238C55.1085 50.1355 54.2732 50.8446 53.1874 51.351C52.1016 51.8879 50.9949 52.1411 49.8986 52.1411C48.4682 52.1411 47.1632 51.8879 45.9834 51.3814C44.8302 50.8965 43.7924 50.1862 42.9347 49.2948C42.0844 48.4103 41.4117 47.3797 40.951 46.2559C40.4766 45.0817 40.2391 43.8299 40.2515 42.5688C40.2515 41.2925 40.4916 40.0668 40.9614 38.9222C41.4166 37.7835 42.0897 36.7387 42.9451 35.8428C43.7949 34.9466 44.8255 34.2294 45.9729 33.7359C47.1632 33.2294 48.4787 32.9761 49.8882 32.9761C50.9844 32.9761 52.0807 33.2395 53.1665 33.7561C54.2524 34.2828 55.0876 34.9919 55.6723 35.9036L55.6932 35.9238ZM55.2964 44.8074C55.5715 44.0947 55.7129 43.3399 55.714 42.5789C55.714 41.7888 55.5679 41.0595 55.2964 40.3504C55.0464 39.6681 54.6636 39.0388 54.1688 38.4967C53.6752 37.9752 53.0787 37.555 52.4148 37.2609C51.701 36.9432 50.9241 36.7807 50.1387 36.7848C49.3035 36.7848 48.5518 36.957 47.8836 37.271C47.229 37.566 46.6402 37.9824 46.1504 38.4967C45.6569 39.0362 45.2805 39.6667 45.0437 40.3504C44.7847 41.0664 44.6541 41.8201 44.6574 42.5789C44.6574 43.3589 44.7827 44.0983 45.0437 44.8074C45.2943 45.5165 45.6702 46.1242 46.1504 46.6307C46.636 47.16 47.2251 47.5904 47.8836 47.8969C48.5518 48.2008 49.3035 48.3628 50.1387 48.3628C50.974 48.3628 51.7362 48.2109 52.4148 47.8969C53.0807 47.5971 53.6773 47.1699 54.1688 46.6408C54.6602 46.1077 55.0428 45.489 55.2964 44.8175V44.8074ZM63.5654 51.6954V33.4624H75.4886V37.656H67.9505V51.6853H63.5654V51.6954ZM91.4106 35.9238V33.4624H95.7956V51.6954H91.4106V49.2238C90.8259 50.1355 89.9802 50.8446 88.9048 51.351C87.8086 51.8879 86.7123 52.1411 85.6056 52.1411C84.1752 52.1411 82.8701 51.8879 81.6903 51.3814C80.5371 50.8965 79.4993 50.1862 78.6417 49.2948C77.7914 48.4103 77.1187 47.3797 76.658 46.2559C76.1871 45.081 75.9532 43.8293 75.9689 42.5688C75.9689 41.2925 76.1986 40.0668 76.6684 38.9222C77.1236 37.7835 77.7967 36.7387 78.6521 35.8428C79.5019 34.9466 80.5325 34.2294 81.6799 33.7359C82.8701 33.2294 84.1857 32.9761 85.5951 32.9761C86.6914 32.9761 87.7877 33.2395 88.8735 33.7561C89.9593 34.2828 90.805 34.9919 91.3792 35.9036L91.4106 35.9238ZM91.0138 44.8074C91.2818 44.0934 91.4161 43.3387 91.4106 42.5789C91.4106 41.7888 91.2748 41.0595 91.0138 40.3504C90.767 39.6689 90.3877 39.0397 89.8967 38.4967C89.3969 37.973 88.7932 37.5526 88.1218 37.2609C87.4431 36.957 86.681 36.7848 85.8562 36.7848C85.0209 36.7848 84.2692 36.957 83.5905 37.271C82.936 37.566 82.3472 37.9824 81.8574 38.4967C81.3639 39.0362 80.9875 39.6667 80.7507 40.3504C80.4953 41.067 80.3681 41.8207 80.3748 42.5789C80.3748 43.3589 80.5001 44.0983 80.7507 44.8074C81.0117 45.5165 81.3771 46.1242 81.8574 46.6307C82.343 47.16 82.9321 47.5904 83.5905 47.8969C84.2692 48.2008 85.0209 48.3628 85.8562 48.3628C86.6914 48.3628 87.4431 48.2109 88.1322 47.8969C88.8056 47.5994 89.4095 47.1721 89.9071 46.6408C90.3948 46.1069 90.7738 45.4882 91.0243 44.8175L91.0138 44.8074ZM113.419 33.4624H117.878L110.674 51.6954H105.14L97.936 33.4624H102.373L107.907 47.4208L113.419 33.4725V33.4624ZM127.452 32.9964C133.434 32.9964 137.516 38.1422 136.744 44.1591H122.158C122.158 45.719 123.808 48.7579 127.692 48.7579C131.033 48.7579 133.278 45.9216 133.278 45.9216L136.243 48.1501C133.58 50.8851 131.409 52.1513 127.995 52.1513C121.918 52.1513 117.804 48.4034 117.804 42.5586C117.804 37.2609 122.064 32.9761 127.441 32.9761L127.452 32.9964ZM122.179 40.9987H132.724C132.682 40.6442 132.098 36.3797 127.42 36.3797C122.722 36.3797 122.221 40.6543 122.179 40.9987ZM139.615 51.6651V24.3154H144V51.6853H139.615V51.6651Z" fill="#FF2D20"></path></g><defs><clipPath id="clip0_1_43"><rect width="118" height="24" fill="white" transform="translate(26 28)"></rect></clipPath></defs></svg>