<svg xmlns="http://www.w3.org/2000/svg" width="170" height="80" viewBox="0 0 170 80" fill="none"><rect width="170" height="80" rx="5" fill="white"></rect><g clip-path="url(#clip0_1_59)"><path d="M35.157 30.5184V33.287H23.727V52.3021H43.0452V41.0093H45.7739V54.9978H21V30.5184H35.157ZM45.7739 26.002V30.5184H50.3446V33.287H45.7739V37.8034H43.0452V33.287H38.4009V30.5184H43.0452V26.002H45.7739ZM32.3547 48.6588V41.0093H29.7733V39.0427H30.0694C30.8791 39.0427 31.5433 38.8969 31.9866 38.5324C32.4283 38.1679 32.7228 37.5134 32.7228 36.7116H35.157V48.6588H32.3547ZM53.5901 42.8318C53.5901 38.5324 56.3172 35.3265 60.5934 35.3265C64.8712 35.3265 67.5983 38.5324 67.5983 42.8318C67.5983 47.1296 64.8712 50.2626 60.5934 50.2626C56.3172 50.2626 53.5901 47.1296 53.5901 42.8318ZM64.5751 42.8318C64.5751 39.9904 63.2484 37.7305 60.5934 37.7305C57.94 37.7305 56.538 39.9904 56.538 42.8318C56.538 45.6732 57.8663 47.9314 60.5934 47.9314C63.322 47.8585 64.5751 45.6732 64.5751 42.8318ZM70.106 35.6181H73.1292L77.9943 43.6321C78.4376 44.4339 79.0266 45.6732 79.0266 45.6732H79.1002C79.1002 45.6732 79.0266 44.2153 79.0266 43.1947V35.6181H81.9024V49.971H79.0266L74.0126 42.0299C73.5709 41.3009 72.9803 40.0633 72.9803 40.0633H72.9067C72.9067 40.0633 72.9803 41.5925 72.9803 42.5402V49.971H70.106V35.6181ZM85.1464 35.6181H95.8386V38.0221H88.0959V41.228H94.8799V43.6321H88.0959V47.4941H95.9122V49.971H85.1464V35.6181ZM105.202 35.6181C106.899 35.6181 108.152 36.1284 109.037 36.9303C109.847 37.7305 110.364 38.8969 110.364 40.2091C110.364 42.9047 108.52 44.7255 105.497 44.7255H101.958V49.8981H98.9353V35.6181H105.202ZM101.811 42.3944H104.834C106.382 42.3944 107.193 41.5196 107.193 40.282C107.193 38.9698 106.308 38.1679 104.908 38.1679H101.811V42.3944ZM112.428 35.6181H115.378V47.4941H122.16V49.971H112.428V35.6181ZM123.783 35.6181H126.732V45.3816C126.732 46.838 127.47 47.9314 129.461 47.9314C131.303 47.9314 132.188 46.838 132.188 45.3816V35.6181H135.137V45.3816C135.137 48.4401 133.22 50.2626 129.535 50.2626C125.7 50.1897 123.783 48.4401 123.783 45.3087V35.6181ZM140.078 45.5274C140.299 47.2754 141.257 47.9314 143.322 47.9314C144.796 47.9314 146.124 47.4212 146.124 46.109C146.124 44.7255 144.722 44.4339 142.51 43.9237C139.931 43.3405 137.496 42.686 137.496 39.6988C137.496 36.8574 139.857 35.3994 143.027 35.3994C146.271 35.3994 148.409 37.0031 148.63 39.8446H145.828C145.681 38.3866 144.501 37.6576 143.027 37.6576C141.478 37.6576 140.372 38.3137 140.372 39.3343C140.372 40.4991 141.405 40.8636 143.543 41.3009C146.566 41.957 149 42.6131 149 45.7445C149 48.6588 146.639 50.2626 143.322 50.2626C139.487 50.2626 137.276 48.513 137.202 45.5274H140.078Z" fill="#F50514"></path></g><defs><clipPath id="clip0_1_59"><rect width="128" height="29" fill="white" transform="translate(21 26)"></rect></clipPath></defs></svg>