<svg xmlns="http://www.w3.org/2000/svg" width="170" height="80" viewBox="0 0 170 80" fill="none"><rect x="0.5" y="0.5" width="169" height="79" rx="4.5" fill="white" stroke="#EEEEEE"></rect><path d="M48.6251 28.946C45.9331 25.1309 40.6158 24 36.7717 26.4257L30.0206 30.6865C29.566 30.9696 29.1424 31.2982 28.7569 31.6675C28.3712 32.0369 28.0253 32.4451 27.725 32.8855C27.4244 33.3256 27.1708 33.7955 26.9683 34.2877C26.7662 34.7799 26.616 35.2916 26.5206 35.8147C26.4407 36.2533 26.3974 36.6977 26.3911 37.1434C26.3852 37.5895 26.4163 38.0347 26.4845 38.4755C26.5527 38.9163 26.6575 39.3507 26.7983 39.7743C26.9387 40.1979 27.1141 40.6088 27.3232 41.004C27.1789 41.22 27.0464 41.4434 26.9253 41.673C26.8038 41.9027 26.6945 42.1383 26.5977 42.3788C26.5003 42.6192 26.4158 42.8646 26.3436 43.1139C26.2715 43.3627 26.2122 43.6154 26.1657 43.8705C26.0698 44.4049 26.0278 44.948 26.0402 45.4906C26.053 46.0337 26.1203 46.5739 26.2408 47.1034C26.3619 47.6333 26.5354 48.1495 26.7598 48.6451C26.9842 49.1407 27.258 49.6128 27.5767 50.0546C30.2687 53.8697 35.5861 55 39.4301 52.5748L46.1817 48.3316C46.6354 48.0481 47.0584 47.7195 47.4434 47.3497C47.8289 46.9799 48.1749 46.572 48.4754 46.1317C48.7753 45.6914 49.0289 45.2217 49.232 44.7296C49.4346 44.2378 49.5849 43.7266 49.6813 43.2035C49.841 42.3249 49.8527 41.4261 49.7158 40.5437C49.6472 40.1034 49.5424 39.6695 49.4015 39.2459C49.2612 38.8227 49.0852 38.4113 48.8762 38.0171C49.02 37.8006 49.1529 37.5773 49.274 37.3476C49.3956 37.1179 49.5048 36.8823 49.6022 36.6419C49.6995 36.4014 49.7845 36.156 49.8572 35.9068C49.9294 35.658 49.9892 35.4053 50.0361 35.1506C50.1318 34.616 50.1737 34.0733 50.1611 33.5305C50.1483 32.9874 50.0811 32.4472 49.96 31.9178C49.8393 31.3881 49.6656 30.8716 49.4416 30.376C49.2173 29.8805 48.9438 29.4083 48.6251 28.9666" fill="#FF3E00"></path><path d="M36.1118 50.4237C35.049 50.697 33.9273 50.6405 32.8979 50.2621C32.3861 50.0743 31.9062 49.8101 31.475 49.4785C31.0437 49.1472 30.6659 48.7527 30.3546 48.3085C30.1629 48.0426 29.9988 47.759 29.8639 47.4613C29.7289 47.163 29.6247 46.8525 29.552 46.5342C29.4798 46.2158 29.4393 45.8911 29.4319 45.5645C29.4245 45.2383 29.4502 44.9121 29.508 44.5908C29.5179 44.5384 29.5283 44.486 29.5397 44.4341C29.551 44.3822 29.5639 44.3303 29.5772 44.2789C29.5906 44.2275 29.6049 44.176 29.6202 44.1251C29.6355 44.0742 29.6518 44.0232 29.6686 43.9728L29.7957 43.5883L30.1426 43.8445C30.3413 43.9885 30.5464 44.1236 30.7569 44.2505C30.967 44.3773 31.1829 44.4949 31.4034 44.6036C31.6238 44.7123 31.8486 44.8117 32.078 44.9013C32.3068 44.9915 32.5396 45.0718 32.7753 45.1418L33.0338 45.2163L33.0106 45.4729C33.0046 45.5596 33.0061 45.6472 33.015 45.7339C33.0239 45.8206 33.0407 45.9068 33.0649 45.9905C33.0886 46.0748 33.1198 46.1566 33.1583 46.2349C33.1964 46.3138 33.2414 46.3887 33.2928 46.4597C33.3867 46.5934 33.5008 46.7119 33.6308 46.8119C33.7608 46.9113 33.9051 46.9906 34.0593 47.0474C34.2135 47.1037 34.3756 47.1366 34.5397 47.1449C34.7038 47.1532 34.8683 47.1366 35.0275 47.0954C35.0636 47.0861 35.1001 47.0748 35.1357 47.0626C35.1713 47.0499 35.2064 47.0362 35.241 47.0215C35.2756 47.0063 35.3097 46.9901 35.3433 46.9725C35.3769 46.9549 35.4095 46.9362 35.4416 46.9162L42.1823 42.6549C42.3479 42.5518 42.4898 42.4155 42.5989 42.2548C42.6533 42.1744 42.6993 42.0892 42.7358 41.9996C42.7724 41.91 42.7996 41.8169 42.8164 41.7219C42.8686 41.4291 42.8303 41.1275 42.7067 40.8565C42.6657 40.7664 42.6157 40.6812 42.5579 40.6014C42.464 40.4677 42.3498 40.3492 42.2199 40.2492C41.9585 40.0487 41.6412 39.9324 41.311 39.9162C41.1469 39.9079 40.9823 39.9245 40.8232 39.9652C40.7866 39.975 40.7505 39.9858 40.715 39.9985C40.6789 40.0107 40.6438 40.0244 40.6092 40.0396C40.5746 40.0543 40.5405 40.071 40.5069 40.0881C40.4738 40.1057 40.4412 40.1248 40.409 40.1449L37.8203 41.7728C37.609 41.9057 37.3878 42.0224 37.1586 42.122C37.0439 42.1715 36.9278 42.217 36.8096 42.2582C36.6915 42.2993 36.5719 42.3356 36.4508 42.3679C35.9235 42.5026 35.3784 42.5574 34.8342 42.5295C34.2901 42.5021 33.7539 42.3924 33.2428 42.2048C32.7323 42.0169 32.2535 41.7532 31.8229 41.4227C31.3922 41.0922 31.0149 40.6985 30.704 40.2551C30.3213 39.722 30.0496 39.1186 29.9049 38.4803C29.8327 38.1619 29.7932 37.8372 29.7858 37.5111C29.7789 37.1849 29.8046 36.8587 29.8629 36.5374C29.9771 35.9053 30.2234 35.3037 30.5859 34.7714C30.7666 34.506 30.9746 34.26 31.2067 34.0373C31.4389 33.8145 31.694 33.6161 31.9673 33.4452L38.7292 29.1844C38.834 29.1178 38.9417 29.0556 39.0514 28.9978C39.1611 28.9395 39.2733 28.8856 39.387 28.8357C39.5012 28.7857 39.6168 28.7402 39.7339 28.6995C39.8516 28.6584 39.9707 28.6217 40.0908 28.5893C40.6186 28.4537 41.1647 28.3983 41.7098 28.4258C42.255 28.4532 42.7922 28.5624 43.3037 28.7505C43.8152 28.9385 44.2951 29.203 44.7261 29.5346C45.157 29.8656 45.5346 30.2604 45.8455 30.7046C46.2299 31.2369 46.5031 31.84 46.6491 32.4784C46.7217 32.7968 46.7622 33.122 46.7697 33.4481C46.7775 33.7745 46.7524 34.1008 46.6945 34.4222C46.6842 34.4751 46.6733 34.5275 46.6614 34.5799C46.6501 34.6323 46.6372 34.6842 46.6239 34.7362C46.6105 34.7881 46.5962 34.84 46.5814 34.8914C46.566 34.9428 46.5502 34.9943 46.5339 35.0452L46.4044 35.4296L46.06 35.1735C45.8608 35.0286 45.6555 34.8921 45.4447 34.7646C45.2336 34.6367 45.0172 34.5182 44.7962 34.4085C44.5751 34.2991 44.3493 34.1989 44.1197 34.1083C43.8898 34.0177 43.6561 33.9369 43.4198 33.8659L43.1609 33.7914L43.1841 33.5353C43.1915 33.4476 43.191 33.36 43.1831 33.2723C43.1752 33.1849 43.1593 33.0983 43.1357 33.0137C43.1124 32.929 43.0818 32.8467 43.0437 32.7674C43.0057 32.688 42.9612 32.6121 42.9098 32.5401C42.8152 32.4089 42.7012 32.2925 42.5718 32.1949C42.4419 32.0975 42.2979 32.02 42.1447 31.9652C41.9918 31.9102 41.8313 31.8786 41.6688 31.8716C41.5057 31.8643 41.3431 31.8814 41.1855 31.9226C41.1489 31.9319 41.1128 31.9431 41.0772 31.9554C41.0416 31.9676 41.0061 31.9813 40.9715 31.9965C40.9369 32.0117 40.9028 32.0279 40.8697 32.0455C40.836 32.0631 40.8034 32.0817 40.7713 32.1018L34.0178 36.3553C33.853 36.4588 33.7115 36.5948 33.6021 36.7549C33.5478 36.8348 33.5018 36.92 33.4647 37.0091C33.4282 37.0987 33.401 37.1913 33.3837 37.2863C33.3664 37.3832 33.3595 37.4817 33.362 37.5806C33.3649 37.679 33.3773 37.777 33.3995 37.8735C33.4218 37.9695 33.4534 38.0631 33.4939 38.1531C33.5349 38.2432 33.5844 38.3289 33.6422 38.4093C33.7356 38.5415 33.8488 38.659 33.9778 38.758C34.1067 38.8569 34.2501 38.9362 34.4033 38.9926C34.556 39.0489 34.7166 39.0822 34.8792 39.091C35.0423 39.0998 35.2054 39.0846 35.364 39.045C35.4001 39.0352 35.4362 39.0239 35.4723 39.0117C35.5079 38.9989 35.5429 38.9852 35.5775 38.97C35.6121 38.9553 35.6462 38.9392 35.6798 38.9215C35.713 38.9039 35.7461 38.8853 35.7782 38.8657L38.3664 37.2397C38.4722 37.1731 38.5804 37.11 38.6911 37.0512C38.8013 36.9924 38.914 36.9381 39.0292 36.8881C39.1438 36.8382 39.2605 36.7926 39.3791 36.7515C39.4972 36.7108 39.6173 36.6741 39.7384 36.6427C40.2667 36.5066 40.8123 36.4508 41.3575 36.4777C41.9023 36.505 42.4397 36.6144 42.9513 36.8019C43.463 36.9897 43.9426 37.254 44.3737 37.5855C44.8051 37.9166 45.1822 38.3113 45.4931 38.755C45.6848 39.021 45.8494 39.3045 45.9843 39.6023C46.1193 39.9005 46.224 40.2106 46.2967 40.5294C46.3693 40.8477 46.4099 41.1724 46.4173 41.4986C46.4252 41.8252 46.4 42.1514 46.3422 42.4727C46.2853 42.788 46.1954 43.0966 46.0738 43.3934C45.9522 43.69 45.7998 43.9733 45.6191 44.2387C45.4387 44.5042 45.2307 44.7505 44.9984 44.9733C44.7661 45.1962 44.5111 45.3945 44.2378 45.565L37.4838 49.8262C37.378 49.8928 37.2698 49.9555 37.159 50.0138C37.0483 50.0721 36.9357 50.1265 36.821 50.1764C36.7058 50.2264 36.5892 50.2719 36.4711 50.3135C36.353 50.3547 36.2329 50.3914 36.1118 50.4237" fill="white"></path><path d="M64.7165 47.4111C64.4041 47.419 64.0918 47.4038 63.7819 47.3651C63.472 47.3269 63.1651 47.2652 62.8646 47.1814C62.5642 47.0972 62.2701 46.9909 61.9859 46.8636C61.7013 46.736 61.4267 46.5873 61.1645 46.4189C60.9204 46.2592 60.6906 46.0795 60.4776 45.8811C60.2646 45.6828 60.0688 45.4668 59.8924 45.2357C59.7165 45.004 59.5608 44.7586 59.4269 44.501C59.2929 44.2434 59.1817 43.9751 59.0938 43.6988L61.25 42.9118C61.3247 43.0818 61.4107 43.2463 61.5085 43.4045C61.6064 43.5627 61.7151 43.714 61.8342 43.8565C61.9538 43.9995 62.0828 44.1342 62.2212 44.2591C62.3594 44.3841 62.5064 44.4993 62.661 44.6039C62.8177 44.7082 62.9828 44.8003 63.1538 44.8796C63.3248 44.959 63.5017 45.0251 63.6831 45.078C63.8645 45.1309 64.0493 45.17 64.2366 45.1945C64.4239 45.2195 64.6127 45.2303 64.8015 45.2268C64.9829 45.2362 65.1643 45.2303 65.3442 45.2087C65.524 45.1872 65.702 45.15 65.8754 45.098C66.0489 45.0461 66.2174 44.9795 66.3795 44.8987C66.5416 44.8182 66.6962 44.7238 66.8416 44.6166C66.9687 44.5108 67.0833 44.3904 67.1826 44.2581C67.3813 43.9927 67.5152 43.6853 67.5736 43.3599C67.6022 43.1973 67.6121 43.0323 67.6027 42.8682C67.6032 42.7918 67.5998 42.7149 67.5909 42.639C67.5825 42.5631 67.5696 42.4877 67.5518 42.4132C67.534 42.3388 67.5118 42.2653 67.4856 42.1938C67.4589 42.1218 67.4278 42.0518 67.3927 41.9837C67.3321 41.8612 67.2617 41.7436 67.1822 41.6321C67.1426 41.5763 67.1006 41.5219 67.0566 41.4695C67.0131 41.4166 66.9672 41.3662 66.9192 41.3167C66.8584 41.2623 66.7957 41.2099 66.7309 41.16C66.6662 41.11 66.5995 41.0625 66.5313 41.018C66.4627 40.9731 66.3925 40.9308 66.3207 40.8911C66.2491 40.8519 66.1759 40.8147 66.1013 40.7809C65.7336 40.5992 65.4306 40.4606 65.1875 40.3656C64.9438 40.2706 64.587 40.1428 64.1185 39.9836C63.5279 39.7784 63.0826 39.6197 62.793 39.5017C62.6932 39.4601 62.5948 39.4165 62.4965 39.3719C62.3986 39.3269 62.3012 39.2803 62.2049 39.2323C62.108 39.1839 62.0126 39.1344 61.9177 39.083C61.8228 39.032 61.7289 38.9791 61.6355 38.9248C61.5353 38.8722 61.4372 38.8157 61.3415 38.7553C61.2458 38.6948 61.1524 38.6306 61.0617 38.5629C60.9712 38.495 60.8835 38.4236 60.7988 38.3488C60.714 38.2741 60.6322 38.196 60.5537 38.1147C60.486 38.0349 60.4217 37.9531 60.3604 37.8684C60.2996 37.7837 60.2418 37.697 60.1875 37.6079C60.1336 37.5187 60.0832 37.4276 60.0362 37.3346C59.9893 37.2415 59.9458 37.147 59.9067 37.0505C59.6788 36.5017 59.5843 35.9074 59.6309 35.3157C59.6775 34.724 59.8639 34.1514 60.1751 33.6443C60.3818 33.3069 60.6406 33.0036 60.9421 32.7456C61.8258 31.9748 63.0243 31.5894 64.5376 31.5894C65.8043 31.5894 66.8451 31.8656 67.6596 32.4175C67.8558 32.5468 68.0406 32.6928 68.2111 32.8534C68.3821 33.0145 68.5383 33.1898 68.6782 33.3779C68.818 33.5655 68.9411 33.7653 69.0459 33.9744C69.1506 34.1835 69.2366 34.401 69.3033 34.6253L67.1856 35.3251C67.1322 35.2076 67.0695 35.094 66.9978 34.9862C66.9261 34.8785 66.8461 34.7761 66.7586 34.6806C66.5827 34.4895 66.3774 34.3272 66.1502 34.1997C66.0143 34.1253 65.873 34.0601 65.7277 34.0048C65.5824 33.9494 65.4336 33.9034 65.2824 33.8681C65.1311 33.8329 64.9774 33.8074 64.8223 33.7922C64.6676 33.7775 64.5119 33.7731 64.3562 33.779C64.204 33.7702 64.0513 33.7741 63.8991 33.7903C63.7473 33.8064 63.5971 33.8348 63.4503 33.8755C63.303 33.9166 63.1597 33.969 63.0213 34.0332C62.8829 34.0973 62.7505 34.1728 62.6245 34.2585C62.5217 34.3378 62.4283 34.4294 62.3472 34.5308C62.2661 34.6322 62.1975 34.7428 62.1431 34.8604C62.0887 34.9779 62.0492 35.1018 62.0245 35.2292C62.0003 35.356 61.9914 35.4858 61.9983 35.6146C62.0002 35.8132 62.0442 36.0093 62.1273 36.19C62.1693 36.2802 62.2202 36.3659 62.2795 36.4452C62.3391 36.5248 62.407 36.598 62.4821 36.6636C62.5553 36.7346 62.6319 36.8022 62.7114 36.8664C62.791 36.9305 62.8731 36.9913 62.9586 37.0481C63.1288 37.1616 63.3091 37.2594 63.4973 37.3405C63.8491 37.4864 64.3873 37.6813 65.1069 37.9301C65.5473 38.0917 65.8838 38.2093 66.0884 38.2915C66.2926 38.3733 66.6059 38.5041 67.0255 38.6941C67.108 38.7304 67.1896 38.7681 67.2706 38.8077C67.3517 38.8474 67.4317 38.8885 67.5108 38.9311C67.5899 38.9742 67.6685 39.0183 67.7461 39.0644C67.8232 39.1104 67.8998 39.1579 67.9754 39.2069C68.0431 39.2549 68.1098 39.3043 68.176 39.3543C68.3086 39.4545 68.4381 39.5585 68.5645 39.6663C68.6277 39.7196 68.6905 39.7745 68.7518 39.8298C68.9509 40.0012 69.1286 40.1955 69.2811 40.4087C69.332 40.4797 69.38 40.5527 69.4249 40.6271C69.4679 40.705 69.5084 40.7839 69.5465 40.8642C69.6228 41.0244 69.6889 41.1891 69.7447 41.3574C69.7727 41.4413 69.7982 41.5261 69.8213 41.6115C69.8495 41.7119 69.8742 41.8133 69.8949 41.9152C69.9162 42.017 69.9335 42.1194 69.9473 42.2227C69.9612 42.3256 69.9715 42.4294 69.978 42.5332C69.9849 42.6371 69.9873 42.7409 69.9869 42.8452C69.9869 44.2738 69.4941 45.3919 68.5086 46.1985C67.5232 47.0051 66.259 47.4096 64.7165 47.4111V47.4111ZM78.8556 47.155L73.5615 31.8563H76.0312L79.5386 42.5166C79.5871 42.6601 79.6335 42.8041 79.678 42.949C79.7225 43.0935 79.7655 43.239 79.806 43.3844C79.8871 43.6761 79.9602 43.9699 80.0254 44.2655C80.0576 44.1176 80.0917 43.9702 80.1282 43.8232C80.1643 43.6763 80.2024 43.5304 80.2429 43.3844C80.2834 43.2385 80.3259 43.0935 80.3704 42.9485C80.4144 42.8041 80.4614 42.6601 80.5098 42.5166L83.9733 31.8563H86.4221L81.1488 47.1496L78.8556 47.155ZM91.0975 47.155V31.8563H100.675V33.997H93.3931V38.1916H98.0917V40.3323H93.3931V44.9986H101.159V47.1393L91.0975 47.155ZM107.002 47.155V31.8563H109.298V44.9653H116.841V47.1496L107.002 47.155ZM125.487 34.0454V47.1496H123.194V34.0405H118.827V31.8563H129.849V34.0405L125.487 34.0454ZM134.6 47.155V31.8563H144.178V33.997H136.893V38.1916H141.591V40.3323H136.893V44.9986H144.659V47.1393L134.6 47.155Z" fill="#4A4A55"></path></svg>