<svg xmlns="http://www.w3.org/2000/svg" width="170" height="80" viewBox="0 0 170 80" fill="none"><rect width="170" height="80" rx="5" fill="white"></rect><g clip-path="url(#clip0_1_30)"><path d="M115.661 43.4775V47.0973C115.661 47.5245 115.463 47.9226 115.125 48.1634C114.679 48.4819 113.093 49.5228 111.424 49.5228C109.843 49.5228 107.993 48.7023 107.993 46.3865C107.993 44.7475 108.912 44.0581 111.385 43.8455L115.661 43.4765V43.4775ZM117.038 49.2092V49.1897L117.043 40.8957C117.043 37.8643 115.768 36.6816 112.494 36.6816C110.674 36.6816 109.372 37.0234 108.6 37.3099L108.282 37.4283V38.8003L108.944 38.5576C109.498 38.3537 110.677 38.0158 112.362 38.0158C114.985 38.0158 115.664 38.6391 115.664 41.053V42.121L111.267 42.4978C109.104 42.6852 106.621 43.294 106.621 46.3885C106.621 49.4898 109.035 50.8773 111.426 50.8773C113.232 50.8773 114.85 49.9869 115.677 49.4344V49.5898C115.677 50.1199 116.117 50.551 116.669 50.551L118.674 50.452V49.3383L117.104 49.2257L117.038 49.2092Z" fill="#525252"></path><path d="M115.471 43.6813L111.401 44.0309C109.025 44.2348 108.184 44.8523 108.184 46.3874C108.184 48.5643 109.93 49.3372 111.425 49.3372C113.035 49.3372 114.577 48.3235 115.012 48.0138C115.3 47.8079 115.47 47.4652 115.47 47.0972V43.6813H115.471ZM111.425 49.7091C109.753 49.7091 107.804 48.8391 107.804 46.3884C107.804 44.6455 108.802 43.8813 111.366 43.6599L115.85 43.2764V47.0972C115.85 47.5827 115.62 48.039 115.235 48.3138C114.779 48.642 113.15 49.7101 111.425 49.7101V49.7091ZM112.36 37.8292C115.101 37.8292 115.852 38.5225 115.852 41.0529V42.2909L111.281 42.6822C109.069 42.8735 106.809 43.4628 106.809 46.3884C106.809 49.3596 109.127 50.6917 111.423 50.6917C113.189 50.6917 114.78 49.8062 115.571 49.279L115.865 49.0819V49.5897C115.865 50.0169 116.226 50.3626 116.669 50.3626L118.483 50.2752V49.511L117.064 49.4071C117.037 49.4022 117.011 49.3957 116.984 49.3877L116.848 49.3508L116.854 40.8946C116.854 37.9593 115.671 36.867 112.493 36.867C110.701 36.867 109.423 37.202 108.666 37.4826L108.469 37.5554V38.5332L108.876 38.3837C109.442 38.1768 110.648 37.8302 112.361 37.8302L112.36 37.8292ZM111.424 51.0636C108.937 51.0636 106.428 49.6169 106.428 46.3874C106.428 43.1444 109.003 42.5055 111.247 42.3122L115.473 41.9501V41.0519C115.473 38.7342 114.89 38.2011 112.36 38.2011C110.707 38.2011 109.55 38.5332 109.008 38.7313L108.089 39.0682V37.2981L108.53 37.133C109.317 36.8417 110.643 36.4941 112.492 36.4941C115.858 36.4941 117.232 37.7681 117.232 40.8946L117.228 49.045L118.863 49.1615V50.6257L116.68 50.7325H116.678C116.396 50.7348 116.123 50.6388 115.907 50.4617C115.691 50.2847 115.547 50.0382 115.5 49.7664C114.61 50.316 113.099 51.0597 111.424 51.0597V51.0636ZM30.8321 43.4774V47.0972C30.8321 47.5244 30.6316 47.9225 30.2963 48.1633C29.8498 48.4818 28.2642 49.5227 26.5953 49.5227C25.0128 49.5227 23.1643 48.7022 23.1643 46.3864C23.1643 44.7474 24.0831 44.058 26.5556 43.8454L30.8321 43.4764V43.4774ZM32.2092 49.2091V49.1896L32.2142 40.8956C32.2142 37.8642 30.9392 36.6815 27.6649 36.6815C25.8452 36.6815 24.5425 37.0233 23.7705 37.3098L23.451 37.4282V38.8002L24.1158 38.5575C24.6685 38.3536 25.8482 38.0157 27.533 38.0157C30.1554 38.0157 30.835 38.639 30.835 41.0529V42.1209L26.4376 42.4977C24.2746 42.6851 21.7921 43.2939 21.7921 46.3884C21.7921 49.4897 24.2071 50.8772 26.5983 50.8772C28.4061 50.8772 30.0214 49.9868 30.8499 49.4343V49.5897C30.8499 50.1198 31.2885 50.551 31.8421 50.551L33.8464 50.4519V49.3382L32.2757 49.2256L32.2102 49.2091H32.2092Z" fill="#525252"></path><path d="M30.6426 43.681L26.5725 44.0305C24.1962 44.2344 23.3548 44.852 23.3548 46.3871C23.3548 48.564 25.1011 49.3369 26.5963 49.3369C28.2067 49.3369 29.7496 48.3232 30.1842 48.0135C30.4719 47.8076 30.6426 47.4649 30.6426 47.0969V43.681ZM26.5963 49.7088C24.9255 49.7088 22.9748 48.8388 22.9748 46.3881C22.9748 44.6452 23.9739 43.881 26.5388 43.6596L31.0216 43.2761V47.0969C31.0216 47.5824 30.7934 48.0387 30.4084 48.3135C29.95 48.6417 28.3208 49.7098 26.5963 49.7098V49.7088ZM27.532 37.8289C30.2725 37.8289 31.0246 38.5222 31.0246 41.0525V42.2905L26.4535 42.6818C24.2408 42.8731 21.9806 43.4625 21.9806 46.3881C21.9806 49.3592 24.2994 50.6914 26.5963 50.6914C28.3625 50.6914 29.952 49.8059 30.7418 49.2787L31.0375 49.0815V49.5894C31.0375 50.0166 31.3986 50.3623 31.8411 50.3623L33.6549 50.2749V49.5107L32.236 49.4068C32.2092 49.402 32.1827 49.3955 32.1567 49.3874L32.0178 49.3505L32.0237 40.8962C32.0237 37.961 30.843 36.8686 27.664 36.8686C25.872 36.8686 24.5941 37.2036 23.837 37.4842L23.6405 37.557V38.5348L24.0474 38.3853C24.6129 38.1785 25.8194 37.8318 27.532 37.8318V37.8289ZM26.5963 51.0633C24.1099 51.0623 21.6016 49.6156 21.6016 46.3861C21.6016 43.1431 24.1763 42.5042 26.4197 42.3109L30.6435 41.9488V41.0506C30.6435 38.7329 30.0621 38.1998 27.532 38.1998C25.879 38.1998 24.7221 38.5319 24.1803 38.73L23.2595 39.0669V37.2978L23.7011 37.1327C24.4879 36.8414 25.8145 36.4938 27.663 36.4938C31.0295 36.4938 32.4027 37.7677 32.4027 40.8943L32.3988 49.0446L34.0339 49.1612V50.6254L31.8511 50.7322C31.5693 50.7347 31.2958 50.6388 31.0798 50.4617C30.8637 50.2846 30.7193 50.038 30.6723 49.7661C29.7823 50.3157 28.2712 51.0594 26.5963 51.0594V51.0633ZM103.64 43.6363C103.64 45.7919 103.01 49.4039 98.7884 49.4039C97.2762 49.4039 96.164 49.0689 95.3891 48.3795C95.2531 48.253 95.1454 48.1003 95.0728 47.931C95.0002 47.7617 94.9643 47.5795 94.9674 47.3959V39.8845C94.9674 39.4912 95.1241 39.131 95.398 38.8941C96.1719 38.228 97.2812 37.9037 98.7884 37.9037C102.053 37.9037 103.64 39.7776 103.64 43.6363ZM98.7884 36.5967C97.1929 36.5967 95.9368 36.9172 94.9684 37.5706V32.6701C94.9676 32.5494 94.9425 32.43 94.8944 32.3189C94.8464 32.2077 94.7764 32.1069 94.6884 32.0223C94.6005 31.9377 94.4963 31.8709 94.3819 31.8257C94.2675 31.7806 94.1451 31.758 94.0218 31.7593H94.0198L92.1545 31.8506V32.8769L93.617 32.9818L93.6507 32.9896V50.4458H94.7818L94.8711 49.6525C95.8554 50.3613 97.1433 50.7108 98.7874 50.7108C102.714 50.7108 104.965 48.1319 104.965 43.6363C104.965 39.0319 102.828 36.5967 98.7864 36.5967" fill="#525252"></path><path d="M98.7883 38.0885C97.3298 38.0885 96.2612 38.3992 95.524 39.0342C95.2898 39.2352 95.1569 39.545 95.1569 39.8848V47.3972C95.1569 47.7303 95.2878 48.0381 95.516 48.242C96.2543 48.8993 97.3248 49.2188 98.7883 49.2188C102.846 49.2188 103.452 45.7213 103.452 43.6357C103.452 39.9042 101.926 38.0895 98.7883 38.0895V38.0885ZM98.7883 49.5907C97.2266 49.5907 96.0727 49.2392 95.261 48.5168C95.1053 48.3733 94.9818 48.1997 94.8985 48.0069C94.8151 47.8142 94.7737 47.6065 94.7769 47.3972V39.8848C94.7769 39.4382 94.9574 39.0265 95.273 38.7556C96.0826 38.0565 97.2326 37.7166 98.7883 37.7166C102.182 37.7166 103.829 39.6537 103.829 43.6367C103.829 48.8168 100.672 49.5907 98.7883 49.5907ZM94.7203 49.3091L94.9852 49.5033C95.9358 50.1898 97.18 50.5248 98.7883 50.5248C102.593 50.5248 104.776 48.0138 104.776 43.6367C104.776 39.1537 102.706 36.7845 98.7883 36.7845C97.2276 36.7845 96.0122 37.0913 95.0745 37.7244L94.7769 37.9244V32.6705C94.7769 32.2724 94.4395 31.9461 94.0228 31.9461L92.344 32.0277V32.7044L93.6934 32.8074L93.8422 32.8413V50.2607H94.6131L94.7203 49.311V49.3091ZM98.7883 50.8957C97.2405 50.8957 96.0052 50.5947 95.0279 49.981L94.9535 50.6316H93.4612V33.1559L91.9649 33.0491V31.6752L94.0119 31.5752C94.6469 31.5752 95.1559 32.0685 95.1559 32.6724V37.234C96.1124 36.6835 97.305 36.4145 98.7874 36.4145C102.953 36.4145 105.154 38.9129 105.154 43.6386C105.154 48.2527 102.833 50.8976 98.7874 50.8976L98.7883 50.8957ZM147.718 49.446C146.823 49.446 146.696 49.3955 145.188 47.6662L141.199 43.0754L146.045 38.6031C146.521 38.1565 146.521 38.1565 147.706 38.0205L148.187 37.9652V36.8524H143.201V37.9623L144.689 38.0807L140.098 42.3142C140.033 42.3428 139.963 42.3561 139.892 42.353H138.76V32.687C138.76 32.1723 138.304 31.7403 137.748 31.7403L135.747 31.8354V32.8938L137.317 33.0025C137.34 33.007 137.363 33.0125 137.386 33.019V49.2013C137.381 49.2013 137.376 49.2033 137.368 49.2052L135.751 49.3237V50.4655H140.401V49.3227L138.83 49.2101C138.8 49.2042 138.778 49.2003 138.76 49.1945V43.6697H139.849C139.923 43.6697 139.994 43.7027 140.041 43.7571L144.1 48.4498C145.471 50.0422 146.134 50.6898 147.169 50.6898C147.582 50.6898 147.859 50.6316 148.013 50.517L148.209 50.3713V49.446H147.718Z" fill="#525252"></path><path d="M138.573 43.4851H139.849C139.98 43.4851 140.103 43.5404 140.187 43.6375L144.245 48.3293C145.575 49.8731 146.213 50.5023 147.169 50.5023C147.623 50.5023 147.814 50.4295 147.896 50.3683L148.019 50.278V49.6313H147.719C146.724 49.6313 146.548 49.5109 145.043 47.7865L140.939 43.0617L145.916 38.4671C146.437 37.9796 146.483 37.9738 147.684 37.8359L147.997 37.799V37.0378H143.393V37.7913L145.129 37.9272L140.228 42.4481C140.138 42.518 139.992 42.5384 139.892 42.5384H138.573L138.571 32.6878C138.571 32.2751 138.193 31.9266 137.75 31.9266L135.939 32.014V32.7179L137.331 32.815C137.389 32.8247 137.418 32.8305 137.44 32.8364L137.579 32.8752L137.577 49.1876L137.604 49.3546L137.384 49.3876L135.943 49.4944V50.278H140.214V49.4935L138.795 49.3915L138.715 49.3721L138.563 49.3332L138.575 49.1779V43.487L138.573 43.4851ZM147.169 50.8742C146.052 50.8742 145.366 50.2071 143.954 48.5701L139.896 43.8773C139.886 43.8647 139.868 43.8579 139.849 43.8579H138.952V49.0332L140.591 49.1497V50.6509H135.56V49.1497L137.197 49.0293V33.1782L135.558 33.0645V31.6605L137.741 31.5537C138.401 31.5537 138.95 32.0732 138.95 32.6878L138.952 42.1645L139.892 42.1665C139.927 42.1667 139.961 42.1628 139.994 42.1548L144.246 38.2321L143.011 38.135V36.6659H148.376V38.1292L147.728 38.2039C146.606 38.3331 146.606 38.3331 146.176 38.736L141.46 43.0889L145.329 47.5457C146.828 49.2594 146.912 49.2594 147.718 49.2594H148.398V50.4654L148.125 50.6644C147.937 50.8072 147.631 50.8742 147.169 50.8742ZM40.5573 42.7413C38.1214 42.0364 37.2582 41.3916 37.2582 40.275C37.2582 39.7458 37.5212 39.2069 37.9806 38.7991C38.3834 38.4399 39.1335 38.0126 40.4184 38.0126C41.3312 38.0126 42.2123 38.234 43.0349 38.67C43.2184 38.7671 43.3157 38.8865 43.3256 39.0273L43.4496 40.943H44.675L44.7563 37.2359H43.6084L43.5746 37.3359C42.9495 37.0271 41.8779 36.6445 40.4194 36.6445C38.2207 36.6445 35.885 37.9165 35.885 40.276C35.885 42.4315 37.5321 43.3297 40.1882 44.0793C42.3195 44.6832 44.0836 45.3076 44.0836 46.8223C44.0836 48.204 42.5219 49.3294 40.603 49.3294C39.5592 49.3294 38.6185 49.075 37.8049 48.5749C37.6412 48.4719 37.5003 48.3378 37.3905 48.1805C37.2808 48.0232 37.2044 47.846 37.166 47.6593L36.8941 46.3611H35.6836L35.9495 50.4266L37.0687 50.4392L37.1322 50.0508L37.1719 49.7838C37.9756 50.2401 39.1424 50.6984 40.603 50.6984C43.3246 50.6984 45.4549 48.9953 45.4549 46.8223C45.4549 44.2036 43.0855 43.4957 40.5563 42.7413" fill="#525252"></path><path d="M37.0253 49.4846L37.2694 49.6225C38.2821 50.2007 39.4327 50.5072 40.6052 50.5109C43.2206 50.5109 45.2686 48.8894 45.2686 46.8212C45.2686 44.3404 43.0609 43.6811 40.504 42.9179C37.9689 42.1848 37.0709 41.4925 37.0709 40.2739C37.0709 39.6914 37.3557 39.1049 37.8548 38.6621C38.2814 38.2805 39.0752 37.8271 40.4196 37.8271C41.3652 37.8271 42.2751 38.0553 43.1264 38.5068C43.431 38.666 43.5064 38.8709 43.5163 39.0146L43.6294 40.7565H44.4907L44.5631 37.4202H43.7495L43.69 37.5979L43.4915 37.5008C42.8704 37.193 41.8345 36.8279 40.4206 36.8279C38.3142 36.8279 36.0748 38.0349 36.0748 40.273C36.0748 42.312 37.6702 43.1723 40.242 43.8986C42.4497 44.5249 44.2754 45.1764 44.2754 46.8212C44.2754 48.3049 42.6283 49.5128 40.6062 49.5128C39.5267 49.5128 38.5523 49.2506 37.7089 48.7302C37.523 48.6143 37.3629 48.4628 37.2384 48.2847C37.1139 48.1066 37.0276 47.9057 36.9846 47.6941L36.7425 46.5455H35.8892L36.1303 50.24L36.9112 50.2497L37.0283 49.4827L37.0253 49.4846ZM40.6042 50.8828C39.4587 50.8801 38.3313 50.6034 37.32 50.0769L37.2307 50.6265L35.7721 50.61L35.4824 46.1755H37.0501L37.3527 47.6203C37.4222 47.9524 37.6246 48.2418 37.9084 48.4165C38.6902 48.8972 39.5971 49.1419 40.6042 49.1419C42.4179 49.1419 43.8944 48.101 43.8944 46.8212C43.8944 45.4356 42.1917 44.8404 40.1359 44.2579C37.3944 43.483 35.6948 42.547 35.6948 40.2739C35.6948 37.795 38.1286 36.458 40.4177 36.458C41.7641 36.458 42.789 36.7745 43.4608 37.0746L43.4707 37.0493H44.9511L44.8618 41.1294H43.2742L43.1373 39.0398C43.1323 38.967 43.0678 38.8981 42.9468 38.834C42.1724 38.4176 41.3032 38.1992 40.4196 38.199C39.1953 38.199 38.4878 38.6 38.1098 38.9369C37.6901 39.3107 37.449 39.7982 37.449 40.2749C37.449 41.2886 38.2775 41.8867 40.6141 42.5625C43.2038 43.3354 45.6496 44.0656 45.6496 46.8222C45.6496 49.0991 43.434 50.8838 40.6062 50.8838L40.6042 50.8828ZM59.2795 49.1807V49.1613L59.2825 40.8089C59.2825 39.3234 59.0027 38.366 58.3766 37.7047C57.6721 36.959 56.538 36.6124 54.8126 36.6124C52.6793 36.6124 51.2248 37.2241 50.3 37.8475V37.7115C50.2989 37.587 50.2726 37.4639 50.2227 37.3494C50.1728 37.2348 50.1003 37.131 50.0093 37.044C49.9183 36.9569 49.8106 36.8883 49.6925 36.8421C49.5743 36.7958 49.448 36.7729 49.3207 36.7745L47.376 36.8716V37.9203L48.9 38.0271L48.9427 38.0368L48.9209 49.1739V49.1836C48.9152 49.1861 48.9092 49.1877 48.903 49.1885L47.2857 49.3069V50.4498H51.9352V49.3079L50.3645 49.1962L50.2951 49.1797V40.2099C50.2951 39.8001 50.4915 39.4175 50.8309 39.1612C51.9372 38.3262 53.2022 37.9378 54.8116 37.9378C57.4052 37.9378 57.8646 38.6446 57.9013 40.8973L57.9043 49.1758V49.1826L57.8845 49.1875L56.2672 49.306V50.4488H60.9176V49.3069L59.344 49.1953L59.2785 49.1797" fill="#525252"></path><path d="M56.4582 50.2646H60.7306V49.4801L59.3118 49.3781C59.2842 49.3734 59.2571 49.3669 59.2304 49.3587L59.0796 49.3199L59.0895 49.1674L59.0925 40.8093C59.0925 39.3742 58.8295 38.4556 58.2392 37.8313C57.5694 37.1273 56.482 36.7972 54.8111 36.7972C52.6481 36.7972 51.2223 37.4526 50.4057 38.0012L50.108 38.2002V37.7118C50.1049 37.5099 50.0201 37.3175 49.8723 37.1766C49.7244 37.0358 49.5256 36.958 49.3192 36.9603L47.565 37.0477V37.7468L48.9343 37.8439L48.9868 37.8565L49.1297 37.8924L49.1079 49.1771L49.1248 49.3267L48.9164 49.3752L47.4727 49.4801V50.2646H51.7432V49.4801L50.3491 49.381C50.3124 49.3756 50.2759 49.3681 50.24 49.3587L50.0961 49.3169L50.1061 49.1694V40.2111C50.1061 39.7422 50.3283 39.3062 50.7153 39.0139C51.8563 38.1536 53.1561 37.7517 54.8111 37.7517C57.5516 37.7517 58.0526 38.577 58.0903 40.8947L58.0933 49.1674L58.1181 49.3131L57.8998 49.3742L56.4572 49.481V50.2646H56.4582ZM61.1096 50.6365H56.0791V49.1354L57.7163 49.015L57.7123 40.8976C57.6776 38.7498 57.2926 38.1245 54.8131 38.1245C53.2474 38.1245 52.02 38.5013 50.9484 39.3091C50.8056 39.4146 50.6897 39.551 50.6096 39.7077C50.5296 39.8643 50.4876 40.037 50.4871 40.2121V49.0189L52.1242 49.1354V50.6365H47.0957V49.1354L48.7328 49.015L48.7527 38.2032L47.187 38.0915V36.6952L49.3103 36.5884C49.8957 36.5884 50.3759 36.9904 50.4712 37.5167C51.3642 36.9856 52.781 36.4272 54.8131 36.4272C56.5951 36.4272 57.7718 36.7933 58.517 37.5798C59.1778 38.2789 59.4725 39.2741 59.4725 40.8102L59.4705 49.0189L61.1096 49.1354V50.6375V50.6365ZM132.606 49.181V49.1616L132.608 40.8093C132.608 39.3237 132.33 38.3663 131.703 37.705C130.997 36.9593 129.865 36.6127 128.139 36.6127C126.006 36.6127 124.551 37.2244 123.625 37.8478V37.7118C123.624 37.5873 123.598 37.4642 123.548 37.3496C123.498 37.235 123.426 37.1311 123.335 37.044C123.244 36.9569 123.136 36.8883 123.018 36.8421C122.9 36.7959 122.774 36.7731 122.646 36.7749L120.702 36.872V37.9206L122.227 38.0274C122.242 38.0303 122.256 38.0332 122.268 38.0371L122.246 49.1742V49.1839C122.241 49.1864 122.235 49.188 122.229 49.1888L120.611 49.3072V50.4501H125.262V49.3082L123.691 49.1965L123.622 49.18C123.622 49.1752 123.622 49.1684 123.624 49.1626V40.2102C123.624 39.8004 123.819 39.4179 124.159 39.1615C125.266 38.3265 126.531 37.9381 128.14 37.9381C130.734 37.9381 131.192 38.645 131.229 40.8976L131.232 49.1762V49.183L131.214 49.1878L129.597 49.3063V50.4491H134.247V49.3072L132.673 49.1956L132.606 49.18" fill="#525252"></path><path d="M129.784 50.2646H134.055V49.4801L132.658 49.381C132.623 49.3759 132.588 49.3688 132.554 49.3597L132.408 49.3208L132.415 49.1703L132.603 49.18L132.415 49.1664L132.417 40.8083C132.417 39.3732 132.153 38.4546 131.563 37.8303C130.895 37.1254 129.807 36.7972 128.137 36.7972C125.974 36.7972 124.548 37.4526 123.732 38.0012L123.434 38.2002V37.7118C123.431 37.5099 123.346 37.3174 123.198 37.1766C123.05 37.0357 122.851 36.958 122.644 36.9603L120.89 37.0477V37.7468L122.309 37.8536L122.456 37.8876L122.436 49.1762L122.452 49.3335L122.242 49.3723L120.799 49.4791V50.2636H125.069V49.4791L123.675 49.3801C123.639 49.3748 123.602 49.3674 123.566 49.3577L123.421 49.316L123.431 49.1684V40.2102C123.431 39.7412 123.655 39.3052 124.042 39.013C125.184 38.1527 126.483 37.7507 128.138 37.7507C130.877 37.7507 131.379 38.576 131.417 40.8937L131.42 49.1762L131.441 49.3373L131.227 49.3733L129.785 49.4801V50.2636L129.784 50.2646ZM134.435 50.6365H129.404V49.1354L131.042 49.015L131.038 40.8976C131.003 38.7498 130.618 38.1245 128.138 38.1245C126.573 38.1245 125.344 38.5013 124.274 39.3091C124.13 39.4142 124.014 39.5505 123.933 39.7072C123.853 39.8639 123.811 40.0368 123.81 40.2121V49.0189L125.449 49.1354V50.6365H120.419V49.1354L122.056 49.015L122.076 38.2032L120.511 38.0915V36.6952L122.635 36.5884C123.22 36.5884 123.699 36.9904 123.795 37.5167C124.688 36.9856 126.105 36.4272 128.137 36.4272C129.919 36.4272 131.096 36.7933 131.84 37.5798C132.501 38.2789 132.796 39.2741 132.796 40.8102L132.794 49.0198L134.433 49.1363V50.6375L134.435 50.6365Z" fill="#525252"></path><path d="M68.9298 41.3995C69.0886 40.6906 69.3267 40.0207 69.674 39.3992C69.8724 39.0303 70.0212 38.6419 70.1105 38.2341C70.1502 38.0399 70.1701 37.8457 70.1701 37.6903C70.1701 36.0008 68.781 34.6318 67.0446 34.6318C65.7547 34.6318 64.6435 35.4085 64.1672 36.5155C64.0283 35.9717 63.9688 35.3891 63.9688 34.7968C63.9886 31.01 67.0942 28 70.9539 28C74.6946 28 77.7506 30.8838 77.9292 34.5055C78.0086 36.0591 77.4331 37.4864 76.5996 38.7778C75.4784 40.4479 74.2183 42.0209 74.2183 44.1182C74.2183 47.1573 76.2524 49.7498 79.0504 50.6237C78.3062 50.8179 77.5224 50.9344 76.7088 50.915C72.4621 50.8762 68.9497 47.536 68.7711 43.3705C68.7512 42.6909 68.8107 42.0403 68.9397 41.4092L68.9298 41.3995ZM81.1836 37.9039C81.1836 37.535 80.886 37.2243 80.5089 37.2243C80.1121 37.2243 79.8144 37.535 79.8144 37.9039C79.8144 38.2729 80.1121 38.5836 80.5089 38.5836C80.8761 38.5836 81.1836 38.2729 81.1836 37.9039ZM80.241 30.777V30.7867V30.777ZM83.1879 45.798C83.1284 44.6328 83.8229 43.5939 84.8449 43.1278V43.0987C84.5473 43.0404 84.2496 43.0016 83.9519 43.0016C81.392 43.0016 79.3183 45.0406 79.3183 47.5457C79.3183 48.5167 79.6358 49.4391 80.1815 50.1674C81.615 49.5179 82.8224 48.4714 83.6543 47.1573C83.3764 46.769 83.2078 46.2835 83.1879 45.798ZM84.1603 35.0396C84.3389 34.5929 84.4381 34.0977 84.4381 33.5831C84.4381 32.8452 84.2397 32.1655 83.8725 31.5732C83.7454 32.4861 83.3683 33.3484 82.7811 34.0686C82.7811 34.088 82.7811 34.1074 82.7513 34.1269C82.5132 34.0006 82.2552 33.8744 81.9576 33.7385C81.7591 33.6414 81.5607 33.5443 81.392 33.418C80.6776 33.0102 80.1418 32.35 79.9235 31.5441C79.7945 31.981 79.7251 32.4374 79.7251 32.9228C79.7251 34.5055 80.5189 35.9037 81.7294 36.7679C81.9873 36.9621 82.2255 37.1563 82.4537 37.3796C83.3467 38.2535 84.0412 39.3216 84.458 40.4867C84.8747 39.943 85.1525 39.2827 85.2815 38.5739C85.3113 38.3409 85.3311 38.1079 85.3311 37.8748C85.3311 36.6417 84.9937 35.7872 84.1404 35.059" fill="#EF533D"></path></g><defs><clipPath id="clip0_1_30"><rect width="128" height="24" fill="white" transform="translate(21 28)"></rect></clipPath></defs></svg>