<svg xmlns="http://www.w3.org/2000/svg" width="170" height="80" viewBox="0 0 170 80" fill="none"><rect width="170" height="80" rx="5" fill="white"></rect><g clip-path="url(#clip0_1_53)"><mask id="path-2-outside-1_1_53" maskUnits="userSpaceOnUse" x="20.3584" y="27.0977" width="122" height="27" fill="black"><rect fill="white" x="20.3584" y="27.0977" width="122" height="27"></rect><path d="M33.4059 29.1204C33.3241 29.1301 33.0329 29.1652 32.7669 29.1952C29.2288 29.5894 26.0748 31.4069 24.2392 34.108C22.5982 36.5192 21.9998 39.57 22.5675 42.5955C23.4929 47.5036 27.455 50.9981 32.8231 51.6373C33.636 51.7371 35.3385 51.7472 36.1618 51.6623C38.5901 51.4075 40.441 50.6884 42.1534 49.3305C42.6751 48.9161 43.4417 48.1923 43.8251 47.7381C45.1035 46.24 44.6535 43.9534 42.8997 43.0548C41.9439 42.5604 40.9623 42.5554 39.9759 43.0248C39.6177 43.1997 39.4438 43.3294 38.9276 43.8186C37.8642 44.8275 37.0409 45.3316 36.0082 45.6011C35.5535 45.7207 35.4099 45.7309 34.5818 45.7359C33.4829 45.741 33.0481 45.651 32.23 45.2665C31.1259 44.7422 30.3536 43.8537 29.9344 42.6204C29.6688 41.8464 29.5818 41.2773 29.5818 40.3736C29.5818 39.2603 29.7657 38.4018 30.1697 37.6029C31.0034 35.9653 32.5112 35.1063 34.5307 35.1165C36.218 35.1266 37.721 35.8905 38.7948 37.2834C39.9958 38.8459 42.2611 39.0106 43.6567 37.6328C44.3312 36.9738 44.6021 36.3197 44.5973 35.3813C44.5869 34.3226 44.2802 33.7484 42.9866 32.4154C41.4788 30.8628 39.7098 29.8543 37.7106 29.4199C36.6727 29.1901 36.1362 29.1356 34.8119 29.1153C34.1219 29.1052 33.4928 29.1103 33.4059 29.1204ZM78.9837 29.1453C73.754 29.6743 69.6738 32.9495 68.478 37.5729C68.0687 39.1606 68.0073 40.9279 68.2985 42.5106C69.0145 46.335 71.5912 49.3555 75.4002 50.8333C78.5342 52.0467 82.4245 52.0265 85.523 50.7788C89.2601 49.2705 91.7806 46.2353 92.4504 42.4455C92.7316 40.873 92.655 39.1006 92.2457 37.5078C91.8983 36.1651 91.2078 34.7671 90.3287 33.6238C89.8891 33.0496 88.7232 31.9262 88.1097 31.4817C86.2896 30.1636 84.1425 29.3798 81.6989 29.1403C81.0802 29.0803 79.6076 29.0853 78.9841 29.1453H78.9837ZM81.5146 35.1063C83.5138 35.4811 84.8892 36.9438 85.2928 39.1302C85.533 40.4387 85.3846 41.9816 84.9095 43.0801C84.4085 44.228 83.5186 45.1119 82.4245 45.5513C81.7703 45.8107 81.3156 45.8855 80.3902 45.8855C79.6435 45.8855 79.4544 45.8707 79.0607 45.771C77.0874 45.2716 75.8194 43.8389 75.4257 41.6567C75.3132 41.0428 75.3132 39.8544 75.4257 39.2303C75.8756 36.7841 77.4093 35.3011 79.7763 35.0315C80.2163 34.9817 81.034 35.0167 81.5146 35.1063ZM106.949 29.1652C104.04 29.5197 101.658 30.573 99.7766 32.3356C96.99 34.9416 95.8197 38.826 96.6271 42.7852C97.1284 45.2416 98.442 47.4284 100.365 48.9959C101.259 49.7251 102.522 50.4438 103.652 50.8735C105.38 51.5275 107.517 51.8368 109.48 51.7071C112.159 51.5372 114 50.9183 115.871 49.5654C116.495 49.1159 117.808 47.8476 118.069 47.4483C118.601 46.6198 118.724 45.6311 118.401 44.7325C117.941 43.454 116.612 42.5955 115.232 42.6902C114.321 42.7501 113.867 42.9698 112.987 43.7886C111.658 45.0219 110.773 45.5065 109.49 45.6958C108.457 45.8508 107.221 45.711 106.367 45.3413C104.981 44.7422 104.02 43.4194 103.698 41.6719C103.59 41.0876 103.575 39.7694 103.672 39.2003C104.01 37.1833 105.257 35.7506 107.072 35.2863C109.209 34.7371 111.392 35.4709 112.727 37.1833C113.13 37.6975 113.478 37.9924 113.974 38.2269C114.92 38.6865 115.901 38.6865 116.842 38.2319C117.952 37.6928 118.611 36.6641 118.621 35.4557C118.626 34.6272 118.386 34.0028 117.803 33.304C116.085 31.2519 114.276 30.0537 112.021 29.4846C110.978 29.2197 110.237 29.1352 108.815 29.1153C107.905 29.1001 107.369 29.1153 106.949 29.1652ZM130.058 29.1251C128.422 29.275 127.313 29.5446 126.244 30.044C124.347 30.9274 123.223 32.2857 122.742 34.2825C122.609 34.827 122.553 36.3945 122.64 37.0435C122.977 39.5299 124.521 41.3073 127.246 42.3606C127.895 42.6103 128.749 42.8553 130.186 43.1946C133.258 43.9184 133.652 44.0582 133.892 44.5178C134.03 44.7773 134.03 45.2517 133.897 45.5061C133.611 46.0503 132.992 46.2552 131.479 46.3C129.368 46.365 128.049 45.9607 126.183 44.6624C125.482 44.1731 125.165 44.0333 124.562 43.9585C123.309 43.7937 122.047 44.5825 121.607 45.8056C121.453 46.2353 121.453 47.074 121.612 47.5235C121.725 47.8328 122.001 48.2971 122.221 48.5367C122.589 48.941 123.805 49.805 124.613 50.2342C126.929 51.4675 130.145 51.9716 133.458 51.6272C137.072 51.2478 139.368 49.715 140.196 47.139C140.457 46.3249 140.59 45.4562 140.59 44.5326C140.59 42.7404 140.017 41.3521 138.811 40.2139C137.527 39.0056 135.861 38.2717 133.008 37.6477C130.431 37.0887 129.884 36.9336 129.404 36.6341C128.99 36.3696 128.861 36.1351 128.856 35.6505C128.856 35.351 128.877 35.2711 129 35.0915C129.25 34.7172 129.69 34.5275 130.518 34.4274C132.195 34.2276 133.974 34.792 135.528 36.0151C136.183 36.5293 136.709 36.7291 137.42 36.7291C138.335 36.7291 139.112 36.3345 139.649 35.6007C140.237 34.797 140.319 33.8135 139.879 32.9098C139.659 32.4552 139.317 32.066 138.647 31.5117C136.99 30.1386 135.053 29.3849 132.568 29.1403C132.088 29.0955 130.487 29.0803 130.058 29.1251ZM51.4633 29.4398C50.2056 29.6346 49.2295 30.3435 48.687 31.4568C48.3396 32.1708 48.3548 31.6664 48.3703 40.6883L48.3855 48.8362L48.5391 49.2608C48.9224 50.334 49.8171 51.1629 50.9674 51.5174C51.4533 51.6623 52.3428 51.6771 52.8589 51.5423C53.851 51.2879 54.7457 50.5685 55.1852 49.685C55.5378 48.971 55.533 49.0559 55.5685 45.6911C55.5993 42.8651 55.6096 42.6056 55.7121 42.0513C55.8498 41.3373 55.9419 40.9828 56.1158 40.5088C56.8314 38.5666 58.2427 37.2784 60.0831 36.899C60.5945 36.7938 61.0444 36.814 61.76 36.9636C62.6391 37.1436 63.5645 37.1533 64.0811 36.9886C64.628 36.809 65.1086 36.5094 65.5637 36.0599C66.259 35.3712 66.5809 34.6023 66.5809 33.6335C66.5761 32.9994 66.484 32.6102 66.2027 32.061C65.809 31.292 65.3232 30.8378 64.4389 30.4082C63.5593 29.984 63.2526 29.9189 62.0615 29.9189C60.9215 29.9189 60.3743 29.9941 59.4951 30.2687C58.2068 30.6731 56.9132 31.4167 55.9164 32.3255C55.7325 32.4953 55.5686 32.6351 55.5482 32.6351C55.5331 32.6351 55.5175 32.565 55.5175 32.4805C55.5175 32.031 55.1138 31.1374 54.6894 30.6481C54.2239 30.1137 53.539 29.6946 52.849 29.5197C52.4605 29.4246 51.8262 29.3849 51.4633 29.4398Z"></path></mask><path d="M33.4059 29.1204C33.3241 29.1301 33.0329 29.1652 32.7669 29.1952C29.2288 29.5894 26.0748 31.4069 24.2392 34.108C22.5982 36.5192 21.9998 39.57 22.5675 42.5955C23.4929 47.5036 27.455 50.9981 32.8231 51.6373C33.636 51.7371 35.3385 51.7472 36.1618 51.6623C38.5901 51.4075 40.441 50.6884 42.1534 49.3305C42.6751 48.9161 43.4417 48.1923 43.8251 47.7381C45.1035 46.24 44.6535 43.9534 42.8997 43.0548C41.9439 42.5604 40.9623 42.5554 39.9759 43.0248C39.6177 43.1997 39.4438 43.3294 38.9276 43.8186C37.8642 44.8275 37.0409 45.3316 36.0082 45.6011C35.5535 45.7207 35.4099 45.7309 34.5818 45.7359C33.4829 45.741 33.0481 45.651 32.23 45.2665C31.1259 44.7422 30.3536 43.8537 29.9344 42.6204C29.6688 41.8464 29.5818 41.2773 29.5818 40.3736C29.5818 39.2603 29.7657 38.4018 30.1697 37.6029C31.0034 35.9653 32.5112 35.1063 34.5307 35.1165C36.218 35.1266 37.721 35.8905 38.7948 37.2834C39.9958 38.8459 42.2611 39.0106 43.6567 37.6328C44.3312 36.9738 44.6021 36.3197 44.5973 35.3813C44.5869 34.3226 44.2802 33.7484 42.9866 32.4154C41.4788 30.8628 39.7098 29.8543 37.7106 29.4199C36.6727 29.1901 36.1362 29.1356 34.8119 29.1153C34.1219 29.1052 33.4928 29.1103 33.4059 29.1204ZM78.9837 29.1453C73.754 29.6743 69.6738 32.9495 68.478 37.5729C68.0687 39.1606 68.0073 40.9279 68.2985 42.5106C69.0145 46.335 71.5912 49.3555 75.4002 50.8333C78.5342 52.0467 82.4245 52.0265 85.523 50.7788C89.2601 49.2705 91.7806 46.2353 92.4504 42.4455C92.7316 40.873 92.655 39.1006 92.2457 37.5078C91.8983 36.1651 91.2078 34.7671 90.3287 33.6238C89.8891 33.0496 88.7232 31.9262 88.1097 31.4817C86.2896 30.1636 84.1425 29.3798 81.6989 29.1403C81.0802 29.0803 79.6076 29.0853 78.9841 29.1453H78.9837ZM81.5146 35.1063C83.5138 35.4811 84.8892 36.9438 85.2928 39.1302C85.533 40.4387 85.3846 41.9816 84.9095 43.0801C84.4085 44.228 83.5186 45.1119 82.4245 45.5513C81.7703 45.8107 81.3156 45.8855 80.3902 45.8855C79.6435 45.8855 79.4544 45.8707 79.0607 45.771C77.0874 45.2716 75.8194 43.8389 75.4257 41.6567C75.3132 41.0428 75.3132 39.8544 75.4257 39.2303C75.8756 36.7841 77.4093 35.3011 79.7763 35.0315C80.2163 34.9817 81.034 35.0167 81.5146 35.1063ZM106.949 29.1652C104.04 29.5197 101.658 30.573 99.7766 32.3356C96.99 34.9416 95.8197 38.826 96.6271 42.7852C97.1284 45.2416 98.442 47.4284 100.365 48.9959C101.259 49.7251 102.522 50.4438 103.652 50.8735C105.38 51.5275 107.517 51.8368 109.48 51.7071C112.159 51.5372 114 50.9183 115.871 49.5654C116.495 49.1159 117.808 47.8476 118.069 47.4483C118.601 46.6198 118.724 45.6311 118.401 44.7325C117.941 43.454 116.612 42.5955 115.232 42.6902C114.321 42.7501 113.867 42.9698 112.987 43.7886C111.658 45.0219 110.773 45.5065 109.49 45.6958C108.457 45.8508 107.221 45.711 106.367 45.3413C104.981 44.7422 104.02 43.4194 103.698 41.6719C103.59 41.0876 103.575 39.7694 103.672 39.2003C104.01 37.1833 105.257 35.7506 107.072 35.2863C109.209 34.7371 111.392 35.4709 112.727 37.1833C113.13 37.6975 113.478 37.9924 113.974 38.2269C114.92 38.6865 115.901 38.6865 116.842 38.2319C117.952 37.6928 118.611 36.6641 118.621 35.4557C118.626 34.6272 118.386 34.0028 117.803 33.304C116.085 31.2519 114.276 30.0537 112.021 29.4846C110.978 29.2197 110.237 29.1352 108.815 29.1153C107.905 29.1001 107.369 29.1153 106.949 29.1652ZM130.058 29.1251C128.422 29.275 127.313 29.5446 126.244 30.044C124.347 30.9274 123.223 32.2857 122.742 34.2825C122.609 34.827 122.553 36.3945 122.64 37.0435C122.977 39.5299 124.521 41.3073 127.246 42.3606C127.895 42.6103 128.749 42.8553 130.186 43.1946C133.258 43.9184 133.652 44.0582 133.892 44.5178C134.03 44.7773 134.03 45.2517 133.897 45.5061C133.611 46.0503 132.992 46.2552 131.479 46.3C129.368 46.365 128.049 45.9607 126.183 44.6624C125.482 44.1731 125.165 44.0333 124.562 43.9585C123.309 43.7937 122.047 44.5825 121.607 45.8056C121.453 46.2353 121.453 47.074 121.612 47.5235C121.725 47.8328 122.001 48.2971 122.221 48.5367C122.589 48.941 123.805 49.805 124.613 50.2342C126.929 51.4675 130.145 51.9716 133.458 51.6272C137.072 51.2478 139.368 49.715 140.196 47.139C140.457 46.3249 140.59 45.4562 140.59 44.5326C140.59 42.7404 140.017 41.3521 138.811 40.2139C137.527 39.0056 135.861 38.2717 133.008 37.6477C130.431 37.0887 129.884 36.9336 129.404 36.6341C128.99 36.3696 128.861 36.1351 128.856 35.6505C128.856 35.351 128.877 35.2711 129 35.0915C129.25 34.7172 129.69 34.5275 130.518 34.4274C132.195 34.2276 133.974 34.792 135.528 36.0151C136.183 36.5293 136.709 36.7291 137.42 36.7291C138.335 36.7291 139.112 36.3345 139.649 35.6007C140.237 34.797 140.319 33.8135 139.879 32.9098C139.659 32.4552 139.317 32.066 138.647 31.5117C136.99 30.1386 135.053 29.3849 132.568 29.1403C132.088 29.0955 130.487 29.0803 130.058 29.1251ZM51.4633 29.4398C50.2056 29.6346 49.2295 30.3435 48.687 31.4568C48.3396 32.1708 48.3548 31.6664 48.3703 40.6883L48.3855 48.8362L48.5391 49.2608C48.9224 50.334 49.8171 51.1629 50.9674 51.5174C51.4533 51.6623 52.3428 51.6771 52.8589 51.5423C53.851 51.2879 54.7457 50.5685 55.1852 49.685C55.5378 48.971 55.533 49.0559 55.5685 45.6911C55.5993 42.8651 55.6096 42.6056 55.7121 42.0513C55.8498 41.3373 55.9419 40.9828 56.1158 40.5088C56.8314 38.5666 58.2427 37.2784 60.0831 36.899C60.5945 36.7938 61.0444 36.814 61.76 36.9636C62.6391 37.1436 63.5645 37.1533 64.0811 36.9886C64.628 36.809 65.1086 36.5094 65.5637 36.0599C66.259 35.3712 66.5809 34.6023 66.5809 33.6335C66.5761 32.9994 66.484 32.6102 66.2027 32.061C65.809 31.292 65.3232 30.8378 64.4389 30.4082C63.5593 29.984 63.2526 29.9189 62.0615 29.9189C60.9215 29.9189 60.3743 29.9941 59.4951 30.2687C58.2068 30.6731 56.9132 31.4167 55.9164 32.3255C55.7325 32.4953 55.5686 32.6351 55.5482 32.6351C55.5331 32.6351 55.5175 32.565 55.5175 32.4805C55.5175 32.031 55.1138 31.1374 54.6894 30.6481C54.2239 30.1137 53.539 29.6946 52.849 29.5197C52.4605 29.4246 51.8262 29.3849 51.4633 29.4398Z" stroke="#75B709" stroke-width="3" mask="url(#path-2-outside-1_1_53)"></path><path d="M142.358 30.3104H142.46V29.7732C142.46 29.6291 142.464 29.5162 142.472 29.4343C142.479 29.3525 142.501 29.2824 142.537 29.2232C142.573 29.1621 142.625 29.1122 142.693 29.074C142.779 29.0266 142.879 29.0078 142.977 29.0204C143.076 29.0331 143.167 29.0765 143.238 29.1441C143.301 29.199 143.343 29.2721 143.359 29.3525C143.376 29.4343 143.384 29.5508 143.384 29.7012V30.3104H143.723C143.854 30.3104 143.954 30.3404 144.023 30.4004C144.056 30.4291 144.083 30.4647 144.101 30.5046C144.119 30.5445 144.127 30.5878 144.126 30.6314C144.126 30.7514 144.077 30.8355 143.979 30.8838C143.88 30.9317 143.74 30.9559 143.557 30.9559H143.384V32.5997C143.384 32.7399 143.389 32.847 143.399 32.9226C143.406 32.9904 143.435 33.0544 143.481 33.1057C143.525 33.1528 143.596 33.1762 143.696 33.1762C143.75 33.1762 143.824 33.1669 143.916 33.1485C144.009 33.1298 144.081 33.1205 144.133 33.1205C144.207 33.1205 144.274 33.1497 144.334 33.2074C144.394 33.2654 144.424 33.3367 144.424 33.4216C144.424 33.5657 144.343 33.6764 144.18 33.7527C144.018 33.8291 143.784 33.8672 143.479 33.8672C143.19 33.8672 142.971 33.8205 142.822 33.7266C142.673 33.6327 142.575 33.5026 142.529 33.3371C142.483 33.1707 142.46 32.9491 142.46 32.6718V30.9559H142.337C142.204 30.9559 142.103 30.9251 142.033 30.8639C141.999 30.8351 141.972 30.7993 141.954 30.7591C141.936 30.7189 141.927 30.6753 141.928 30.6314C141.928 30.5379 141.965 30.4608 142.038 30.4004C142.111 30.3404 142.218 30.3108 142.358 30.3108V30.3104ZM147.835 32.1151V33.304C147.835 33.4917 147.791 33.6327 147.703 33.7266C147.615 33.8201 147.499 33.8672 147.354 33.8672C147.214 33.8672 147.101 33.8205 147.014 33.7266C146.927 33.6327 146.883 33.4917 146.883 33.304V31.8798C146.883 31.6547 146.875 31.4802 146.86 31.3555C146.844 31.2309 146.801 31.1292 146.731 31.0494C146.661 30.9699 146.55 30.9298 146.399 30.9298C146.096 30.9298 145.897 31.0303 145.801 31.2313C145.705 31.4323 145.657 31.7201 145.657 32.096V33.3044C145.657 33.4902 145.614 33.6304 145.527 33.7251C145.44 33.8201 145.325 33.8676 145.183 33.8676C145.043 33.8676 144.928 33.8201 144.839 33.7254C144.75 33.6304 144.705 33.4902 144.705 33.3047V30.7463C144.705 30.5784 144.745 30.4506 144.826 30.3634C144.906 30.2761 145.011 30.2321 145.142 30.2321C145.269 30.2321 145.374 30.2734 145.459 30.3552C145.544 30.437 145.586 30.55 145.586 30.6941V30.7794C145.746 30.5936 145.918 30.4573 146.101 30.37C146.291 30.2809 146.5 30.236 146.711 30.2387C146.943 30.2387 147.143 30.2835 147.31 30.3731C147.478 30.4627 147.615 30.5979 147.724 30.7794C147.879 30.5959 148.047 30.46 148.225 30.3716C148.403 30.2831 148.601 30.2391 148.817 30.2391C149.071 30.2391 149.288 30.287 149.472 30.3833C149.654 30.4791 149.791 30.6166 149.881 30.7958C149.96 30.957 150 31.2114 150 31.5589V33.3044C150 33.4921 149.956 33.6331 149.868 33.727C149.78 33.8205 149.663 33.8676 149.519 33.8676C149.379 33.8676 149.264 33.8201 149.175 33.7254C149.086 33.6304 149.041 33.4902 149.041 33.3047V31.8012C149.041 31.6091 149.033 31.4549 149.016 31.3392C149.002 31.2305 148.954 31.1287 148.878 31.0478C148.804 30.9691 148.691 30.9298 148.54 30.9298C148.418 30.9298 148.302 30.9648 148.193 31.0349C148.083 31.1047 147.998 31.1985 147.937 31.3162C147.869 31.4669 147.835 31.7334 147.835 32.1155V32.1151Z" fill="#75B709"></path></g><defs><clipPath id="clip0_1_53"><rect width="130" height="27" fill="white" transform="translate(20 27)"></rect></clipPath></defs></svg>