<svg xmlns="http://www.w3.org/2000/svg" width="170" height="80" viewBox="0 0 170 80" fill="none"><rect width="170" height="80" rx="5" fill="white"></rect><g clip-path="url(#clip0_1_12)"><path d="M27.1573 45.1854C27.0834 45.2236 27.0114 45.2708 26.9414 45.3259H21.0092V51.3451L24.7584 55.0722H37.3783L41.0542 51.4504V40.2034L37.2451 36.5724H32.4846C32.4686 36.2279 32.5419 35.9238 32.5419 35.9238C33.0508 35.6767 33.5705 36.2996 33.5705 36.2996C33.8136 36.2793 34.1208 36.4526 34.1208 36.4526C34.4818 36.3356 35.5651 36.6116 35.6143 36.5335C35.6557 35.8955 35.3918 35.5064 35.1754 35.2981H41.0555V29.1908L36.8667 24.9639H25.3686L21 29.2435V40.2533L24.7945 43.9962H28.2459C28.1667 44.196 28.0846 44.3614 28.0846 44.3614L27.1573 45.1854ZM33.5272 34.2848C33.4027 34.2283 33.2381 34.227 33.2381 34.227L33.0103 33.9844C33.0103 33.4798 32.4535 33.617 32.4535 33.617L32.5001 33.3425C32.6526 33.3425 33.0758 33.4021 33.5287 33.464V34.2846H33.5272V34.2848ZM33.0987 45.9621L33.8654 45.9924V47.8165H32.0428L32.0415 47.5077L32.0614 45.8516C32.0927 45.4521 32.3944 45.69 32.3944 45.69C32.65 45.9438 33.0987 45.9621 33.0987 45.9621ZM33.5272 32.4973C33.5053 32.4896 33.4832 32.4783 33.4613 32.469H33.5272V32.4973ZM24.9989 43.5086L21.5011 40.0586V29.4654L25.5666 25.4728H36.6501L40.6 29.468V34.8082H34.561C34.5177 34.7393 34.489 34.6854 34.489 34.6854C34.3825 34.4942 34.1952 34.4232 34.026 34.399V33.5309C34.5037 33.5926 34.9159 33.636 34.9647 33.5875C35.1885 33.3654 34.6115 33.0086 34.026 32.7246V31.9847H32.3918C31.9855 31.7152 31.9222 31.4827 31.9222 31.4827C31.7831 30.6121 32.7576 30.9675 32.7576 30.9675C33.2731 31.0064 33.3797 30.7172 33.3797 30.7172C33.1806 30.1487 32.453 29.9661 32.3371 29.9173C32.1992 29.8608 32.1774 29.8094 32.2305 29.7052C32.2671 29.6335 32.6589 29.8083 32.7861 29.6849C33.0764 29.397 32.0653 28.7603 32.0653 28.7603C32.7235 28.7242 31.9973 28.0606 31.9973 28.0606C31.5597 27.7189 31.7122 27.4185 31.7122 27.4185C32.1745 27.4644 32.1732 26.9868 32.1012 26.9689C31.4203 26.8152 31.5363 26.553 31.5363 26.553C31.5363 26.3242 31.4229 26.0872 31.4229 26.0872C31.5155 25.6759 31.3271 25.7581 31.3271 25.7581C31.0492 25.7581 31.2098 26.0033 31.2098 26.0033C31.1094 26.4173 30.8201 26.7037 30.8201 26.7037C30.1919 26.6918 30.5197 27.2734 30.5197 27.2734L30.91 27.2387L30.8188 27.6151C29.9127 28.0055 30.1606 28.6487 30.677 28.7078C30.723 28.8235 30.6497 28.9273 30.6497 28.9273C30.1121 28.9502 30.2193 29.1535 29.765 29.3717C29.4132 29.5437 29.4213 29.7211 29.4487 29.8467C29.5005 30.0971 29.8403 29.8586 29.8403 29.8586L29.506 30.3067C28.3875 30.7975 29.374 31.1182 29.374 31.1182C30.2541 30.5991 30.5978 30.7975 30.5978 30.7975C30.737 31.3429 30.4611 31.7292 30.1394 31.9821H28.4093C28.4093 32.138 28.4093 32.4086 28.4093 32.749C27.8676 33.1189 27.67 33.6142 27.67 33.6142C27.2989 33.9816 27.484 34.1637 27.484 34.1637C27.6685 34.255 28.0595 34.1072 28.408 33.9369C28.408 34.2792 28.408 34.636 28.408 34.9804C28.3794 34.9936 28.3601 35.0033 28.3601 35.0033C28.1282 35.4606 27.2457 35.828 27.2457 35.828C26.1786 36.2838 26.6889 36.8819 26.6889 36.8819C26.8593 36.9101 27.7461 36.7293 28.4082 36.5881C28.4082 36.7983 28.4082 36.968 28.4082 37.0796C28.6181 37.0796 29.2023 37.0796 29.9705 37.0796C29.774 37.4087 29.429 37.751 29.429 37.751C29.2883 38.2083 28.7327 38.3931 28.7327 38.3931C27.2471 38.7585 27.3385 39.2618 27.3385 39.2618L28.4529 39.1705C28.778 38.8964 29.011 39.1705 29.011 39.1705L29.3821 39.2618C29.5694 39.5365 29.2935 40.35 29.2935 40.35H28.5513C28.5047 40.626 27.9945 40.6234 27.9945 40.6234C27.7626 40.5341 27.4829 40.8086 27.4829 40.8086C27.3904 40.9914 26.9727 41.1753 26.9727 41.1753C26.6016 41.2647 26.8801 41.4488 26.8801 41.4488C27.2059 41.22 27.2059 41.7222 27.2059 41.7222C27.1134 41.9521 26.3578 41.9417 26.3699 42.1349C26.3933 42.4765 28.924 41.4462 28.924 41.4462C29.2482 41.1755 29.4802 41.3121 29.4802 41.3121C29.7125 41.6775 29.0165 42.1349 29.0165 42.1349C28.7382 42.4554 28.2851 42.6317 28.2851 42.6317C27.2131 42.8026 27.0926 43.4149 27.0819 43.5056C25.8677 43.5086 24.9989 43.5086 24.9989 43.5086ZM29.0633 33.5719C29.5749 33.0671 29.946 33.5719 29.946 33.5719C30.8286 33.8931 30.2258 34.2119 30.2258 34.2119C30.1099 34.2119 29.4279 34.5149 28.9216 34.7449V33.6593C29.01 33.608 29.0633 33.5719 29.0633 33.5719ZM28.9213 32.4949V32.4693H28.996C28.9699 32.4773 28.9458 32.487 28.9213 32.4949ZM29.1504 36.423C29.9865 36.1042 30.0331 36.5629 30.0331 36.5629C30.0357 36.5657 30.0372 36.567 30.0399 36.5708H28.9213V36.4767C29.0633 36.4446 29.1504 36.423 29.1504 36.423ZM30.7114 45.9306C30.8626 46.238 30.8912 47.0765 30.8912 47.0765V47.2474L30.8746 47.8191H29.2012V46.3183C29.5697 46.0541 29.8173 45.5572 29.8173 45.5572C30.2897 45.363 30.5593 45.6231 30.7114 45.9306ZM27.1407 43.5086L28.2785 43.2785C28.3697 43.2906 28.3929 43.3813 28.3824 43.5086C27.9455 43.5086 27.5271 43.5086 27.1407 43.5086ZM28.2717 46.6966C28.4109 46.4642 28.6428 46.468 28.6428 46.468C28.6594 46.4706 28.6741 46.4693 28.6894 46.4719C28.6894 47.0713 28.6894 47.9333 28.6894 48.3289C29.0178 48.3289 29.9106 48.3289 30.8978 48.3289L30.8584 49.195C30.8477 49.5842 30.8219 50.4144 30.7897 50.651C30.6958 51.3542 30.5333 51.4528 30.4326 51.5173C30.2908 51.6054 30.0823 51.6421 29.7764 51.7709C29.0242 52.0837 29.0889 52.8656 28.7259 53.0931C28.2822 53.3717 28.4041 53.2824 28.0098 53.3689C27.614 53.4557 27.4009 53.888 27.4009 53.888H35.4627C35.4314 53.6421 35.4859 53.4201 34.5415 53.1112C33.6208 52.8101 34.0858 52.6474 32.8994 52.0521C32.4723 51.8391 32.2472 51.0822 32.1299 50.5157C32.0413 50.0847 32.0938 49.8876 32.0938 49.8876L32.0478 48.5825L32.0465 48.3289C33.0777 48.3289 34.0232 48.3289 34.3628 48.3289C34.3628 47.9648 34.3641 47.0016 34.3641 46.0185C34.9157 46.1119 35.8377 46.8321 35.8377 46.8321C36.8129 47.3829 36.6278 46.7847 36.6278 46.7847C36.3493 44.8187 35.1881 44.6348 35.1881 44.6348C34.4925 44.4505 34.9562 44.0378 34.9562 44.0378C35.7929 43.3979 34.805 43.2218 34.805 43.2218C34.1556 43.3098 33.4665 42.8775 33.4665 42.8775C32.3054 42.0062 32.7298 41.4477 32.7298 41.4477C32.8224 40.8522 34.2022 41.7354 34.2022 41.7354C34.5733 42.0561 34.9443 41.7788 34.9443 41.7788C34.9903 41.5962 35.4233 41.2636 35.4233 41.2636C36.2127 40.6681 34.3081 40.5328 34.3081 40.5328C33.402 39.9742 32.8458 39.7849 32.5767 39.0846C32.5007 38.888 32.4968 38.7572 32.4968 38.7572C32.4968 38.7572 33.9236 38.888 34.003 38.9057C34.0829 38.9227 34.5973 38.9793 34.584 38.8019C34.5748 38.6717 34.3236 38.288 33.7407 38.0292C33.2305 37.8043 32.7939 37.3623 32.6182 37.0763C34.8107 37.0763 37.0236 37.0763 37.0236 37.0763L40.6011 40.4629V51.1908L37.1057 54.6406H25.0177L21.5089 51.1401V45.8359H26.4598C25.8896 46.6101 25.5485 47.6942 25.5485 47.6942C25.5019 48.2437 26.2799 47.7863 26.2799 47.7863C26.2799 47.7863 26.3578 47.6482 26.3832 47.6022C26.6591 47.1434 27.4066 47.0987 27.4066 47.0987C27.7761 47.187 28.2717 46.6966 28.2717 46.6966Z" fill="#CC2229"></path><path d="M31.7517 26.5237C31.7804 26.5479 31.8762 26.6208 32.1668 26.6853C32.328 26.7214 32.4326 26.8694 32.4352 27.0447C32.4352 27.0704 32.4326 27.0987 32.43 27.1256C32.4 27.303 32.2635 27.5752 32.0276 27.6421C32.0429 27.6527 32.1501 27.7349 32.1501 27.7349C32.5532 28.0444 32.8816 28.6271 32.5444 28.7376C33.0015 29.0458 33.1534 29.3646 33.1586 29.4887C33.172 29.7686 33.0041 29.8343 32.9742 29.8751C33.2407 30.0026 33.5339 30.2556 33.6623 30.6242L33.6962 30.7241L33.6601 30.8219C33.5936 31.0066 33.3225 31.3097 32.7341 31.2663L32.6989 31.2611L32.6643 31.2518C32.4871 31.1968 32.3059 31.175 32.2333 31.2382C32.2147 31.2559 32.1915 31.2829 32.1915 31.342C32.1915 31.3649 32.2175 31.3999 32.2202 31.4253C32.2293 31.4433 32.2514 31.4767 32.2882 31.5207H34.5351V32.654C34.9421 32.8867 35.2473 33.1384 35.3018 33.3835C35.3083 33.4131 35.3132 33.444 35.3145 33.4748C35.3145 33.5931 35.2679 33.7075 35.1766 33.7981C35.0766 33.8974 34.9675 33.9309 34.5351 33.8922V34.2984C34.5533 34.3135 34.569 34.328 34.5872 34.3457H40.0964V29.7112L36.4439 26.0063H31.7099C31.7071 26.0195 31.7047 26.0314 31.7031 26.0411C31.7532 26.1162 31.8257 26.5144 31.7517 26.5237Z" fill="#CC2229"></path><path d="M28.7852 41.9469L28.8125 41.9167L28.8451 41.893C28.9256 41.8405 28.9963 41.7788 29.0595 41.7171C29.0468 41.7223 29.0348 41.7264 29.0348 41.7264C26.6512 42.6924 26.3508 42.5055 26.2376 42.436C26.1357 42.3769 26.0757 42.2743 26.0672 42.16C26.0672 42.1509 26.0659 42.1429 26.0659 42.1351C26.0632 41.8144 26.4236 41.7212 26.6647 41.6607C26.5667 41.5833 26.4809 41.4624 26.4781 41.3191C26.4768 41.2966 26.4794 41.2731 26.482 41.2494C26.5028 41.1337 26.5886 40.9813 26.8599 40.9025C27.0118 40.8343 27.171 40.7489 27.2036 40.699C27.2078 40.6925 27.245 40.6386 27.245 40.6386L27.275 40.6082C27.317 40.5663 27.676 40.1916 28.0292 40.3349C28.1292 40.3349 28.2123 40.3045 28.257 40.2745C28.2657 40.2298 28.2942 40.0563 28.2942 40.0563H29.0663C29.1182 39.8577 29.1484 39.66 29.1468 39.5344C29.1468 39.5253 29.1442 39.5225 29.1429 39.5115C29.0403 39.4859 28.9364 39.4621 28.9364 39.4621L28.8451 39.4306L28.7852 39.3702C28.7646 39.3503 28.7386 39.322 28.6473 39.3984L28.574 39.4608L27.0918 39.583L27.0433 39.3188C27.0107 39.1373 27.0279 38.5157 28.6366 38.1149C28.7539 38.0728 29.0637 37.9179 29.1396 37.6682L29.1563 37.6116H27.9051V36.9991C27.3297 37.1148 26.8039 37.2009 26.6407 37.1752L26.5315 37.1562L26.4602 37.0727C26.4367 37.0464 26.2689 36.8426 26.2663 36.551C26.2663 36.4919 26.2722 36.4282 26.2884 36.3624C26.3663 36.0326 26.6488 35.7639 27.1304 35.5563C27.3483 35.465 27.6852 35.2835 27.9051 35.0925V34.4504C27.6927 34.5002 27.4975 34.5043 27.3496 34.4314L27.3076 34.4098L27.2721 34.3764C27.2623 34.3712 27.1398 34.2462 27.1369 34.036C27.1356 33.8856 27.2021 33.6902 27.4126 33.4643C27.4627 33.3577 27.6117 33.0713 27.9049 32.7829V31.5205H30.1912C30.2789 31.3969 30.3349 31.2516 30.3317 31.0848C30.3317 31.0796 30.3317 31.0736 30.3303 31.0669C30.1897 31.0794 29.9358 31.1372 29.5256 31.3789L29.4177 31.4441L29.2952 31.4126C29.1519 31.3766 28.6771 31.2233 28.6458 30.8411C28.6445 30.8305 28.6432 30.8193 28.6432 30.8089C28.6405 30.5007 28.9361 30.2504 29.2134 30.1144C29.2134 30.1144 29.2107 30.1131 29.2107 30.1116C29.1668 30.0605 29.1002 29.8468 29.1081 29.8127C29.1208 29.4413 29.5764 29.1587 29.9814 28.8533C29.9995 28.8363 30.0179 28.8158 30.0361 28.7981C29.9827 28.7633 29.9348 28.7212 29.9008 28.6593C29.8682 28.6002 29.8523 28.5423 29.8523 28.4819C29.8488 28.2518 29.8262 27.9153 30.3511 27.564C30.3264 27.5305 30.2691 27.4496 30.2691 27.4496C30.2391 27.4069 30.1231 27.1269 30.1218 26.9245C30.1205 26.8496 30.1371 26.7728 30.1765 26.6959C30.2404 26.5738 30.2938 26.4309 30.6268 26.4225C30.6242 26.4225 30.7115 26.4225 30.7115 26.4225C30.7207 26.4212 30.8327 26.1844 30.9132 26.0307C30.9106 26.0228 30.9106 26.015 30.908 26.0083H25.7714L22.0088 29.7132V39.8879L25.2104 43.0487H26.8437C26.9743 42.8055 27.3128 42.4362 28.1861 42.2916C28.1968 42.2888 28.5766 42.1902 28.7852 41.9469Z" fill="#CC2229"></path><path d="M26.6426 47.7585L26.5034 48.0029L26.4334 48.0437C26.2496 48.1526 25.7866 48.384 25.4728 48.1908C25.3868 48.1356 25.2497 48.0108 25.2448 47.7521C25.2448 47.727 25.2462 47.702 25.2481 47.6746L25.2508 47.6442L25.2602 47.6126C25.2941 47.5024 25.4759 46.9557 25.7798 46.3721H22.0146V50.9707L25.2223 54.1839H26.925L27.1296 53.7648C27.1583 53.7096 27.42 53.2024 27.9409 53.0893L28.1716 53.0459C28.2794 53.0288 28.2794 53.0288 28.5619 52.8514C28.6479 52.799 28.7378 52.6531 28.8118 52.4744C28.9577 52.1234 29.1089 51.7343 29.655 51.506C29.8255 51.435 29.8769 51.4032 30.02 51.3665C30.1119 51.343 30.2318 51.2944 30.267 51.2746C30.3071 51.2498 30.4117 51.1852 30.4882 50.6202C30.5075 50.4728 30.5362 50.1247 30.5443 49.7001C30.5443 49.7001 30.5535 49.1929 30.5535 49.1875C30.5535 49.1875 30.5548 49.1601 30.5548 49.1586C30.5521 49.1614 30.5261 49.1955 30.5261 49.1955L30.5359 48.867H28.1867V47.1544C27.9808 47.2978 27.6985 47.4372 27.416 47.4029C27.2454 47.4102 26.7964 47.4983 26.6426 47.7585Z" fill="#CC2229"></path><path d="M35.7541 53.8L35.7994 54.1837H36.8984L40.0967 51.0218V40.7053L36.81 37.6157H33.5838C33.6724 37.6723 33.7623 37.726 33.861 37.7687C34.4951 38.0474 34.8609 38.5021 34.8808 38.7894C34.8808 38.7959 34.8808 38.8026 34.8808 38.8103C34.8821 38.9292 34.8235 39.0758 34.6489 39.1565C34.529 39.2131 34.0839 39.2841 33.8588 39.1887C33.6529 39.1671 33.2984 39.1321 32.9149 39.0987C33.1048 39.4766 33.4212 39.6743 33.964 39.9905C33.964 39.9905 34.3051 40.1929 34.4023 40.2505C35.0285 40.3032 35.7665 40.453 35.893 40.8723C35.9037 40.9103 35.9123 40.955 35.9123 40.9997C35.9149 41.1417 35.8477 41.3204 35.6053 41.5032C35.4372 41.6357 35.2576 41.8095 35.2289 41.8725C35.2215 41.8934 35.199 41.9644 35.199 41.9644L35.1237 42.0225C34.9311 42.1643 34.4633 42.3326 34.0325 41.9869C33.6474 41.7387 33.1906 41.5427 33.0146 41.5416C33.0105 41.56 33.0046 41.5809 33.0046 41.5809L32.9759 41.623C32.9599 41.6506 32.9505 41.6888 32.9505 41.7359C32.9532 41.9146 33.0978 42.2301 33.638 42.64C33.6993 42.6741 34.2616 43.0043 34.7618 42.9344L34.8084 42.9266L34.8563 42.9356C34.9596 42.954 35.4753 43.0658 35.5751 43.464C35.639 43.7254 35.4972 43.9962 35.1574 44.2615C35.1454 44.2749 35.1327 44.2878 35.1235 44.3036C35.1495 44.3167 35.1926 44.3325 35.26 44.3523C35.4539 44.3929 36.6337 44.7244 36.9227 46.7428C36.964 46.9058 36.9474 47.1266 36.7715 47.2658C36.4838 47.4933 36.0414 47.2949 35.6897 47.0951L35.6705 47.0845L35.6519 47.0687C35.4127 46.881 35.1289 46.6943 34.8712 46.5484V48.864H32.3574L32.3939 49.8972V49.9127C32.3939 49.9168 32.346 50.0772 32.4239 50.4622C32.5646 51.1377 32.7884 51.6713 33.0367 51.7962C33.6857 52.1208 33.8894 52.2838 34.0513 52.4715C34.1813 52.6228 34.2579 52.7135 34.6382 52.8359C35.525 53.1272 35.7107 53.3914 35.7541 53.8Z" fill="#CC2229"></path><path d="M32.9678 41.6347L32.9766 41.623V41.6201L32.9678 41.6347Z" fill="#C2C2C2"></path><path d="M74.4518 43.4705C72.191 44.2907 71.9277 45.9873 71.9277 46.9453C71.9277 47.7601 72.2001 50.4189 75.7502 50.4189C77.3969 50.4189 78.4503 49.6775 79.0277 49.0848C79.2688 49.905 79.9922 50.3912 81.0328 50.3912C82.2345 50.3912 82.9088 49.796 83.6182 48.9534L83.7615 48.7708L83.3305 48.2859L83.1193 48.4646C83.0127 48.5539 82.8828 48.5934 82.6909 48.5934C81.9229 48.5934 81.775 47.8866 81.775 46.973C81.775 46.6102 81.789 46.0149 81.805 45.329C81.8281 44.3328 81.8555 43.0922 81.8555 41.9815C81.8555 40.7161 81.8135 39.5062 81.2632 38.6317C80.5252 37.5284 79.3373 37.0151 77.5114 37.0151C74.6995 37.0151 73.4171 38.723 73.0953 39.7283L73.0301 39.9273L73.6863 40.3151L73.828 40.051C73.8333 40.0376 74.5602 38.7059 76.3303 38.7059C77.5335 38.7059 78.4214 39.2789 78.7325 40.1917C78.8872 40.6687 78.8872 40.8525 78.8872 41.6228V42.0329C77.2838 42.5269 76.7849 42.6243 74.4518 43.4705ZM78.8901 48.0018C78.1886 48.4974 77.3864 48.5986 76.8256 48.5986C75.1242 48.5986 74.8704 47.4249 74.8704 46.7271C74.8704 45.8334 75.2649 45.0726 76.0143 44.6966C76.5546 44.4301 77.1462 44.1422 78.8903 43.6257V48.0018H78.8901Z" fill="#696969"></path><path d="M49.7512 49.7734C51.0796 50.1992 52.3719 50.3829 54.072 50.3829C55.9731 50.3829 60.3952 49.8783 60.3952 45.1972C60.3952 42.4333 58.8042 41.3848 57.1142 40.2729L55.1305 38.9773C53.4018 37.8511 52.6117 37.3344 52.6117 35.8139C52.6117 34.7074 52.9499 33.2309 55.8572 33.2309C57.0936 33.2309 58.2627 33.4774 58.7909 33.9984C59.174 34.3802 59.3773 34.8744 59.425 35.5603L59.441 35.8139H60.1059L60.0853 35.4099C60.0632 34.8677 60.0733 34.3413 60.0733 33.7368C60.0733 32.9725 60.0919 32.2674 60.0919 32.261L60.1006 32.0305L59.8641 31.989C59.7921 31.9799 58.0568 31.6875 55.8025 31.6875C50.314 31.6875 49.8895 35.324 49.8895 36.4357C49.8895 38.7112 50.9973 39.8527 53.1738 41.272L54.74 42.3036L54.9769 42.464C56.4604 43.4494 57.535 44.1645 57.535 45.8758C57.535 47.8784 56.3731 48.8091 53.8763 48.8091C52.6865 48.8091 51.4043 48.4383 50.8472 47.8167C50.484 47.4133 50.2875 46.8403 50.2536 46.258L50.2403 45.9874L49.4668 45.9858L49.5049 46.6325C49.5322 47.032 49.5596 47.5208 49.5596 48.7732V49.7104L49.7512 49.7734Z" fill="#696969"></path><path d="M70.6489 38.9894V37.3905H66.1914V34.4849H65.6199L65.3254 34.9791C65.3101 35.0016 64.4395 36.6285 63.1803 37.5911C62.8245 37.8626 62.5175 38.0859 61.7134 38.4144L61.543 38.4833V38.9894H63.273L63.2623 39.8903C63.2402 41.8092 63.2216 43.4648 63.2216 45.5283C63.2216 46.2775 63.2216 47.523 63.4288 48.159C63.9238 49.7546 65.0482 50.4658 67.0728 50.4658C69.4523 50.4658 70.4616 49.1672 70.5082 49.116L70.6215 48.9913L70.3925 48.4642L70.122 48.6011C70.1168 48.6088 69.4225 48.9531 68.5193 48.9531C66.5732 48.9531 66.1917 47.7993 66.1917 45.7703V38.9909H70.6491V38.9894H70.6489Z" fill="#696969"></path><path d="M94.9322 46.9634C94.9013 47.8218 94.8762 48.8139 94.4526 49.2343C94.2261 49.4564 93.8743 49.5971 93.3667 49.6759L93.131 49.7048V50.3029L93.4334 50.2753C94.6018 50.165 95.4385 50.165 96.4058 50.165C97.2533 50.165 98.0633 50.2097 99.0052 50.2569L99.6542 50.2897V49.6865L99.3956 49.6679C99.0199 49.6444 98.5869 49.492 98.3829 49.3053C97.9766 48.9322 97.8928 48.3328 97.8928 46.2011V42.4321C97.8928 41.8012 97.8489 40.6107 97.7224 40.1219C97.2839 38.1473 95.7437 37.061 93.3815 37.061C91.5775 37.061 90.2481 37.816 89.587 38.3003V37.2779L89.3297 37.1282L89.1792 37.1944C89.0195 37.2695 88.5718 37.5335 87.8016 37.6531C86.7942 37.8469 85.8396 37.898 85.4359 37.898C85.3525 37.898 85.2887 37.898 85.2366 37.8915L84.9407 37.8697V38.607L85.1871 38.634C85.2197 38.6353 85.2569 38.6405 85.295 38.642C85.6114 38.6636 86.2035 38.7037 86.4708 39.0848C86.7058 39.4291 86.7299 40.1113 86.7299 41.6987V45.3889C86.7299 47.5902 86.7061 48.6905 86.3004 49.1372C85.9131 49.5667 85.3589 49.6524 85.1399 49.6707L84.8887 49.6891V50.3042L85.1819 50.2753C86.3549 50.1676 87.2417 50.1676 88.1902 50.1676C89.0109 50.1676 89.7995 50.2097 90.7056 50.2543L91.4038 50.291V49.6878L91.1465 49.6695C90.7668 49.6444 90.3404 49.492 90.1341 49.3053C89.7301 48.9346 89.6424 48.3341 89.6424 46.2024V39.4211C90.1927 39.1412 90.9252 38.8777 92.0939 38.8777C93.794 38.8777 94.676 39.6551 94.8729 41.3241C94.9795 42.311 94.9795 43.3125 94.9795 44.2772C94.9795 45.0195 94.9795 46.0343 94.9567 46.5164C94.9429 46.6742 94.9348 46.8214 94.9322 46.9634Z" fill="#696969"></path><path d="M106.632 31.8573C106.979 31.5128 107.541 31.3919 107.951 31.3919C108.938 31.3919 109.659 31.8197 110.158 32.9153L110.227 33.0769L110.54 33.0728L111.838 31.2922L111.799 31.0188L111.698 30.9385C110.99 30.3728 109.779 29.9541 108.503 29.9541C105.533 29.9541 103.766 31.3058 103.248 33.9715C103.091 34.7733 103.056 36.2511 103.053 37.395C102.718 37.6546 102.259 37.8944 101.518 38.1953L101.348 38.2682V38.991H103.053V45.3918C103.053 47.593 103.035 48.6812 102.628 49.1282C102.242 49.5592 101.689 49.6447 101.465 49.6578L101.211 49.6803V50.3071L101.513 50.2781C102.685 50.1702 103.789 50.1702 104.759 50.1702C105.534 50.1702 106.605 50.2043 108.047 50.2781L108.337 50.2952V49.6052H108.06C107.733 49.6052 106.617 49.5657 106.255 49.0218C106.024 48.6879 105.968 47.86 105.968 46.1543V38.9923H108.886V37.3937H105.969V34.8974C105.969 33.2474 106.065 32.413 106.632 31.8573Z" fill="#696969"></path><path d="M116.266 50.5197C121.181 50.5197 122.925 46.7952 122.925 43.5992C122.925 39.4903 120.538 37.0342 116.542 37.0342C111.626 37.0342 109.886 40.7607 109.886 43.9555C109.886 48.0662 112.273 50.5197 116.266 50.5197ZM114.578 39.1132C115.034 38.7241 115.658 38.5277 116.43 38.5277C119.652 38.5277 119.814 42.8684 119.814 43.7386C119.814 45.9912 119.284 47.576 118.234 48.4435C117.77 48.8326 117.144 49.0296 116.379 49.0296C113.154 49.0296 112.992 44.6876 112.992 43.8202C112.995 41.5674 113.526 39.9811 114.578 39.1132Z" fill="#696969"></path><path d="M130.376 39.2329C131.565 39.2329 132.179 39.7973 132.484 40.2706L132.567 40.3953H133.097L134.2 38.4056V37.9988L134.111 37.9153C133.572 37.4396 132.831 37.1972 131.918 37.1972C130.515 37.1972 129.519 37.8162 128.891 38.3989V37.2779L128.661 37.1577L128.509 37.2253C128.288 37.3291 127.743 37.4901 127.107 37.5939C126.1 37.789 125.147 37.8391 124.741 37.8391C124.659 37.8391 124.575 37.8378 124.527 37.8324L124.246 37.8251V38.607L124.501 38.634C124.528 38.6353 124.565 38.6405 124.603 38.642C124.921 38.6635 125.511 38.7037 125.779 39.0848C126.012 39.4291 126.031 40.1113 126.031 41.6987V45.3889C126.031 47.5902 126.015 48.6507 125.608 49.0977C125.226 49.5289 124.666 49.6155 124.447 49.6302L124.189 49.6498V50.3042L124.493 50.2753C125.663 50.1676 126.763 50.1676 127.739 50.1676C128.509 50.1676 129.584 50.2017 131.024 50.2753L131.315 50.2923V49.5762H131.042C130.71 49.5762 129.604 49.5341 129.234 48.9941C129.009 48.6602 128.951 47.8571 128.951 46.1528V39.6462C129.364 39.3663 129.833 39.2329 130.376 39.2329Z" fill="#696969"></path><path d="M148.681 49.1554C148.37 49.1304 147.8 49.0686 147.531 48.6823C147.299 48.3719 147.278 47.3971 147.278 45.8226V35.2991C147.278 33.5912 147.289 31.3183 147.376 30.2526L147.387 30.1265L147.163 29.9932L147.033 30.043C146.766 30.1395 146.255 30.2526 145.738 30.3348C144.509 30.5746 142.997 30.6996 142.934 30.6996H142.657L142.6 31.2771L142.849 31.3006C142.878 31.3041 142.913 31.3065 142.953 31.308C143.265 31.3324 143.839 31.3751 144.104 31.7522C144.336 32.0964 144.359 32.9567 144.359 34.5659V37.3086C143.795 37.1897 142.855 37.0635 141.802 37.0635C138.929 37.0635 136.651 38.4053 135.556 40.7485C135.091 41.759 134.842 42.9603 134.842 44.222C134.842 48.0331 137.165 50.4907 140.757 50.4907C142.479 50.4907 143.766 49.7522 144.416 49.2791V50.3699L144.767 50.4855L144.885 50.4331C145.117 50.328 145.583 50.2371 146.22 50.1346C147.328 49.9481 148.469 49.8704 148.762 49.8704H149.037V49.1763L148.789 49.166C148.759 49.1606 148.722 49.158 148.681 49.1554ZM144.357 48.1199C143.607 48.5798 142.742 48.648 142.282 48.648H142.162C138.362 48.648 137.949 45.3085 137.949 43.8722C137.949 40.3317 139.194 38.6081 141.745 38.6081C143.35 38.6081 144.144 39.2651 144.357 39.4749V48.1199Z" fill="#696969"></path></g><defs><clipPath id="clip0_1_12"><rect width="128" height="30" fill="white" transform="translate(21 25)"></rect></clipPath></defs></svg>